<svg xmlns="http://www.w3.org/2000/svg" viewBox="0 0 400 640" width="400" height="640"><defs>
    <radialGradient id="bgGrad" cx="50%" cy="38%" r="75%">
      <stop offset="0%" stop-color="#12162a"/>
      <stop offset="100%" stop-color="#0b0e1a"/>
    </radialGradient>
    <linearGradient id="sheen" x1="0%" y1="0%" x2="100%" y2="100%">
      <stop offset="35%" stop-color="#c9a96e" stop-opacity="0"/>
      <stop offset="50%" stop-color="#c9a96e" stop-opacity="0.14"/>
      <stop offset="65%" stop-color="#c9a96e" stop-opacity="0"/>
    </linearGradient>
    <radialGradient id="halo" cx="50%" cy="50%" r="50%">
      <stop offset="0%" stop-color="#e4c894" stop-opacity="0.13"/>
      <stop offset="45%" stop-color="#e4c894" stop-opacity="0.06"/>
      <stop offset="100%" stop-color="#e4c894" stop-opacity="0"/>
    </radialGradient>
    <filter id="glow" x="-40%" y="-40%" width="180%" height="180%">
      <feGaussianBlur stdDeviation="3.5" result="b"/>
      <feMerge><feMergeNode in="b"/><feMergeNode in="SourceGraphic"/></feMerge>
    </filter>
    <symbol id="sym-wands" viewBox="-20 -20 40 40"><g>
    <line x1="0" y1="-18" x2="0" y2="18" stroke="#c9a96e" stroke-width="2" stroke-linecap="round" transform="rotate(18)"/>
    <line x1="-5" y1="-10" x2="5" y2="-6" stroke="#c9a96e" stroke-width="1.3" transform="rotate(18)"/>
    <line x1="-5" y1="2" x2="5" y2="6" stroke="#c9a96e" stroke-width="1.3" transform="rotate(18)"/>
  </g></symbol>
<symbol id="sym-cups" viewBox="-20 -20 40 40"><g>
    <path d="M -9 -12 L 9 -12 L 5 6 A 5 5 0 0 1 -5 6 Z" fill="none" stroke="#c9a96e" stroke-width="1.6"/>
    <line x1="0" y1="6" x2="0" y2="14" stroke="#c9a96e" stroke-width="1.6"/>
    <line x1="-6" y1="16" x2="6" y2="16" stroke="#c9a96e" stroke-width="1.6"/>
  </g></symbol>
<symbol id="sym-swords" viewBox="-20 -20 40 40"><g>
    <line x1="0" y1="-18" x2="0" y2="14" stroke="#c9a96e" stroke-width="2"/>
    <line x1="-7" y1="-6" x2="7" y2="-6" stroke="#c9a96e" stroke-width="1.6"/>
    <circle cx="0" cy="17" r="2.2" fill="#c9a96e"/>
  </g></symbol>
<symbol id="sym-pentacles" viewBox="-20 -20 40 40"><g>
    <circle cx="0" cy="0" r="13" fill="none" stroke="#c9a96e" stroke-width="1.5" opacity="1"/>
    <polygon points="0,-8.4 2,-2.75 7.99,-2.6 3.23,1.05 4.94,6.8 0,3.4 -4.94,6.8 -3.23,1.05 -7.99,-2.6 -2,-2.75" fill="none" stroke="#c9a96e" stroke-width="1.2" opacity="1"/>
  </g></symbol>
  </defs>
    <rect x="0" y="0" width="400" height="640" fill="url(#bgGrad)"/>
    <ellipse cx="200" cy="330" rx="185" ry="215" fill="url(#halo)"/>
    <rect x="0" y="0" width="400" height="640" fill="url(#sheen)"/>
    <rect x="14" y="14" width="372" height="612" fill="none" stroke="#c9a96e" stroke-width="1.6" opacity="0.9"/>
    <rect x="21" y="21" width="358" height="598" fill="none" stroke="#c9a96e" stroke-width="0.7" opacity="0.5"/>
    <rect x="27" y="27" width="346" height="586" fill="none" stroke="#c9a96e" stroke-width="0.4" opacity="0.25"/>
    <polygon points="44,38 50,44 44,50 38,44" fill="#e4c894" opacity="1"/><polygon points="356,38 362,44 356,50 350,44" fill="#e4c894" opacity="1"/><polygon points="44,590 50,596 44,602 38,596" fill="#e4c894" opacity="1"/><polygon points="356,590 362,596 356,602 350,596" fill="#e4c894" opacity="1"/>
    <g fill="none" stroke="#c9a96e" stroke-width="0.7" opacity="0.5">
      <path d="M30 58 Q30 30 58 30"/>
      <path d="M370 58 Q370 30 342 30"/>
      <path d="M30 582 Q30 610 58 610"/>
      <path d="M370 582 Q370 610 342 610"/>
    </g>
    <g stroke="#c9a96e" stroke-width="0.9" stroke-linecap="round" opacity="0.54"><line x1="52.7" y1="407.2" x2="52.7" y2="414.1"/><line x1="49.3" y1="410.6" x2="56.2" y2="410.6"/></g><g stroke="#c9a96e" stroke-width="0.9" stroke-linecap="round" opacity="0.56"><line x1="344.7" y1="378.5" x2="344.7" y2="387.4"/><line x1="340.2" y1="382.9" x2="349.1" y2="382.9"/></g><g stroke="#c9a96e" stroke-width="0.9" stroke-linecap="round" opacity="0.51"><line x1="48.3" y1="425.2" x2="48.3" y2="431.8"/><line x1="45.0" y1="428.5" x2="51.6" y2="428.5"/></g><g stroke="#c9a96e" stroke-width="0.9" stroke-linecap="round" opacity="0.59"><line x1="341.9" y1="395.0" x2="341.9" y2="402.8"/><line x1="337.9" y1="398.9" x2="345.8" y2="398.9"/></g><g stroke="#c9a96e" stroke-width="0.9" stroke-linecap="round" opacity="0.54"><line x1="54.5" y1="201.8" x2="54.5" y2="208.0"/><line x1="51.4" y1="204.9" x2="57.6" y2="204.9"/></g><g stroke="#c9a96e" stroke-width="0.9" stroke-linecap="round" opacity="0.48"><line x1="345.8" y1="506.7" x2="345.8" y2="513.7"/><line x1="342.3" y1="510.2" x2="349.3" y2="510.2"/></g>
  <g filter="url(#glow)">
    <circle cx="50" cy="128" r="9.5" fill="none" stroke="#c9a96e" stroke-width="0.9" opacity="0.55"/><circle cx="87.5" cy="131.06146745892073" r="9.5" fill="none" stroke="#c9a96e" stroke-width="0.9" opacity="0.55"/><path d="M 87.5 121.56146745892073 A 9.5 9.5 0 0 1 87.5 140.56146745892073 A 6.7175144212722016 9.5 0 0 0 87.5 121.56146745892073 Z" fill="#c9a96e" opacity="0.85"/><circle cx="125" cy="133.65685424949237" r="9.5" fill="none" stroke="#c9a96e" stroke-width="0.9" opacity="0.55"/><path d="M 125 124.15685424949237 A 9.5 9.5 0 0 1 125 143.15685424949237 A 5.817072295949927e-16 9.5 0 0 0 125 124.15685424949237 Z" fill="#c9a96e" opacity="0.85"/><circle cx="162.5" cy="135.3910362600903" r="9.5" fill="none" stroke="#c9a96e" stroke-width="0.9" opacity="0.55"/><path d="M 162.5 125.89103626009029 A 9.5 9.5 0 0 1 162.5 144.8910362600903 A 6.717514421272201 9.5 0 0 1 162.5 125.89103626009029 Z" fill="#c9a96e" opacity="0.85"/><circle cx="200" cy="136" r="9.5" fill="none" stroke="#c9a96e" stroke-width="0.9" opacity="0.55"/><circle cx="200" cy="136" r="8.7" fill="#c9a96e" opacity="0.85"/><circle cx="237.5" cy="135.3910362600903" r="9.5" fill="none" stroke="#c9a96e" stroke-width="0.9" opacity="0.55"/><path d="M 237.5 125.89103626009029 A 9.5 9.5 0 0 0 237.5 144.8910362600903 A 6.717514421272203 9.5 0 0 0 237.5 125.89103626009029 Z" fill="#c9a96e" opacity="0.85"/><circle cx="275" cy="133.65685424949237" r="9.5" fill="none" stroke="#c9a96e" stroke-width="0.9" opacity="0.55"/><path d="M 275 124.15685424949237 A 9.5 9.5 0 0 0 275 143.15685424949237 A 1.7451216887849782e-15 9.5 0 0 0 275 124.15685424949237 Z" fill="#c9a96e" opacity="0.85"/><circle cx="312.5" cy="131.06146745892073" r="9.5" fill="none" stroke="#c9a96e" stroke-width="0.9" opacity="0.55"/><path d="M 312.5 121.56146745892073 A 9.5 9.5 0 0 0 312.5 140.56146745892073 A 6.7175144212722 9.5 0 0 1 312.5 121.56146745892073 Z" fill="#c9a96e" opacity="0.85"/><circle cx="350" cy="128" r="9.5" fill="none" stroke="#c9a96e" stroke-width="0.9" opacity="0.55"/>
    <line x1="52" y1="200" x2="74" y2="220" stroke="#c9a96e" stroke-width="0.7" opacity="0.41250000000000003" stroke-linecap="round"/><line x1="74" y1="220" x2="62" y2="250" stroke="#c9a96e" stroke-width="0.7" opacity="0.41250000000000003" stroke-linecap="round"/><line x1="62" y1="250" x2="88" y2="262" stroke="#c9a96e" stroke-width="0.7" opacity="0.41250000000000003" stroke-linecap="round"/><circle cx="52" cy="200" r="1.8" fill="#e4c894" opacity="0.55"/><circle cx="74" cy="220" r="1.8" fill="#e4c894" opacity="0.55"/><circle cx="62" cy="250" r="1.8" fill="#e4c894" opacity="0.55"/><circle cx="88" cy="262" r="1.8" fill="#e4c894" opacity="0.55"/>
    <line x1="348" y1="210" x2="324" y2="232" stroke="#c9a96e" stroke-width="0.7" opacity="0.41250000000000003" stroke-linecap="round"/><line x1="324" y1="232" x2="338" y2="258" stroke="#c9a96e" stroke-width="0.7" opacity="0.41250000000000003" stroke-linecap="round"/><line x1="338" y1="258" x2="312" y2="270" stroke="#c9a96e" stroke-width="0.7" opacity="0.41250000000000003" stroke-linecap="round"/><circle cx="348" cy="210" r="1.8" fill="#e4c894" opacity="0.55"/><circle cx="324" cy="232" r="1.8" fill="#e4c894" opacity="0.55"/><circle cx="338" cy="258" r="1.8" fill="#e4c894" opacity="0.55"/><circle cx="312" cy="270" r="1.8" fill="#e4c894" opacity="0.55"/>
    <line x1="56" y1="470" x2="80" y2="486" stroke="#c9a96e" stroke-width="0.7" opacity="0.41250000000000003" stroke-linecap="round"/><line x1="80" y1="486" x2="66" y2="512" stroke="#c9a96e" stroke-width="0.7" opacity="0.41250000000000003" stroke-linecap="round"/><circle cx="56" cy="470" r="1.8" fill="#e4c894" opacity="0.55"/><circle cx="80" cy="486" r="1.8" fill="#e4c894" opacity="0.55"/><circle cx="66" cy="512" r="1.8" fill="#e4c894" opacity="0.55"/>
    <line x1="344" y1="480" x2="320" y2="498" stroke="#c9a96e" stroke-width="0.7" opacity="0.41250000000000003" stroke-linecap="round"/><line x1="320" y1="498" x2="336" y2="522" stroke="#c9a96e" stroke-width="0.7" opacity="0.41250000000000003" stroke-linecap="round"/><line x1="336" y1="522" x2="310" y2="532" stroke="#c9a96e" stroke-width="0.7" opacity="0.41250000000000003" stroke-linecap="round"/><circle cx="344" cy="480" r="1.8" fill="#e4c894" opacity="0.55"/><circle cx="320" cy="498" r="1.8" fill="#e4c894" opacity="0.55"/><circle cx="336" cy="522" r="1.8" fill="#e4c894" opacity="0.55"/><circle cx="310" cy="532" r="1.8" fill="#e4c894" opacity="0.55"/>
    <circle cx="200" cy="360" r="168" fill="none" stroke="#c9a96e" stroke-width="1.5" opacity="0.75"/>
    <line x1="200" y1="205" x2="200" y2="192" stroke="#c9a96e" stroke-width="0.9" opacity="0.7000000000000001" stroke-linecap="round"/><line x1="227.9573566043758" y1="201.44595176503452" x2="229.1728938480443" y2="194.55229749394906" stroke="#c9a96e" stroke-width="0.9" opacity="0.55" stroke-linecap="round"/><line x1="255.06524307543268" y1="208.70948805346876" x2="257.45938407871233" y2="202.1316397079674" stroke="#c9a96e" stroke-width="0.9" opacity="0.55" stroke-linecap="round"/><line x1="277.5" y1="225.76606241341202" x2="284" y2="214.5077321642143" stroke="#c9a96e" stroke-width="0.9" opacity="0.7000000000000001" stroke-linecap="round"/><line x1="303.48880515953283" y1="236.66684465784454" x2="307.98831842733864" y2="231.3045335560117" stroke="#c9a96e" stroke-width="0.9" opacity="0.55" stroke-linecap="round"/><line x1="323.33315534215546" y1="256.51119484046717" x2="328.69546644398827" y2="252.01168157266142" stroke="#c9a96e" stroke-width="0.9" opacity="0.55" stroke-linecap="round"/><line x1="334.233937586588" y1="282.5" x2="345.4922678357857" y2="276" stroke="#c9a96e" stroke-width="0.9" opacity="0.7000000000000001" stroke-linecap="round"/><line x1="351.2905119465313" y1="304.93475692456735" x2="357.8683602920326" y2="302.54061592128767" stroke="#c9a96e" stroke-width="0.9" opacity="0.55" stroke-linecap="round"/><line x1="358.5540482349655" y1="332.0426433956242" x2="365.447702506051" y2="330.8271061519557" stroke="#c9a96e" stroke-width="0.9" opacity="0.55" stroke-linecap="round"/><line x1="355" y1="360" x2="368" y2="360" stroke="#c9a96e" stroke-width="0.9" opacity="0.7000000000000001" stroke-linecap="round"/><line x1="358.5540482349655" y1="387.9573566043758" x2="365.447702506051" y2="389.1728938480443" stroke="#c9a96e" stroke-width="0.9" opacity="0.55" stroke-linecap="round"/><line x1="351.2905119465313" y1="415.06524307543265" x2="357.8683602920326" y2="417.45938407871233" stroke="#c9a96e" stroke-width="0.9" opacity="0.55" stroke-linecap="round"/><line x1="334.233937586588" y1="437.5" x2="345.4922678357857" y2="444" stroke="#c9a96e" stroke-width="0.9" opacity="0.7000000000000001" stroke-linecap="round"/><line x1="323.33315534215546" y1="463.48880515953283" x2="328.69546644398827" y2="467.9883184273386" stroke="#c9a96e" stroke-width="0.9" opacity="0.55" stroke-linecap="round"/><line x1="303.48880515953283" y1="483.33315534215546" x2="307.98831842733864" y2="488.69546644398827" stroke="#c9a96e" stroke-width="0.9" opacity="0.55" stroke-linecap="round"/><line x1="277.5" y1="494.233937586588" x2="284" y2="505.4922678357857" stroke="#c9a96e" stroke-width="0.9" opacity="0.7000000000000001" stroke-linecap="round"/><line x1="255.06524307543268" y1="511.29051194653124" x2="257.45938407871233" y2="517.8683602920325" stroke="#c9a96e" stroke-width="0.9" opacity="0.55" stroke-linecap="round"/><line x1="227.9573566043758" y1="518.5540482349654" x2="229.1728938480443" y2="525.447702506051" stroke="#c9a96e" stroke-width="0.9" opacity="0.55" stroke-linecap="round"/><line x1="200" y1="515" x2="200" y2="528" stroke="#c9a96e" stroke-width="0.9" opacity="0.7000000000000001" stroke-linecap="round"/><line x1="172.04264339562422" y1="518.5540482349654" x2="170.82710615195572" y2="525.447702506051" stroke="#c9a96e" stroke-width="0.9" opacity="0.55" stroke-linecap="round"/><line x1="144.93475692456735" y1="511.2905119465313" x2="142.54061592128767" y2="517.8683602920325" stroke="#c9a96e" stroke-width="0.9" opacity="0.55" stroke-linecap="round"/><line x1="122.50000000000003" y1="494.233937586588" x2="116.00000000000004" y2="505.4922678357857" stroke="#c9a96e" stroke-width="0.9" opacity="0.7000000000000001" stroke-linecap="round"/><line x1="96.51119484046717" y1="483.33315534215546" x2="92.01168157266139" y2="488.69546644398827" stroke="#c9a96e" stroke-width="0.9" opacity="0.55" stroke-linecap="round"/><line x1="76.66684465784456" y1="463.48880515953283" x2="71.3045335560117" y2="467.98831842733864" stroke="#c9a96e" stroke-width="0.9" opacity="0.55" stroke-linecap="round"/><line x1="65.76606241341199" y1="437.5" x2="54.5077321642143" y2="444" stroke="#c9a96e" stroke-width="0.9" opacity="0.7000000000000001" stroke-linecap="round"/><line x1="48.70948805346876" y1="415.0652430754327" x2="42.131639707967395" y2="417.4593840787124" stroke="#c9a96e" stroke-width="0.9" opacity="0.55" stroke-linecap="round"/><line x1="41.44595176503452" y1="387.9573566043758" x2="34.552297493949055" y2="389.1728938480443" stroke="#c9a96e" stroke-width="0.9" opacity="0.55" stroke-linecap="round"/><line x1="45" y1="360" x2="32" y2="360" stroke="#c9a96e" stroke-width="0.9" opacity="0.7000000000000001" stroke-linecap="round"/><line x1="41.44595176503452" y1="332.04264339562417" x2="34.552297493949055" y2="330.82710615195566" stroke="#c9a96e" stroke-width="0.9" opacity="0.55" stroke-linecap="round"/><line x1="48.70948805346873" y1="304.93475692456735" x2="42.131639707967395" y2="302.54061592128767" stroke="#c9a96e" stroke-width="0.9" opacity="0.55" stroke-linecap="round"/><line x1="65.76606241341202" y1="282.5" x2="54.5077321642143" y2="276" stroke="#c9a96e" stroke-width="0.9" opacity="0.7000000000000001" stroke-linecap="round"/><line x1="76.66684465784452" y1="256.51119484046717" x2="71.30453355601168" y2="252.01168157266142" stroke="#c9a96e" stroke-width="0.9" opacity="0.55" stroke-linecap="round"/><line x1="96.51119484046714" y1="236.66684465784456" x2="92.01168157266137" y2="231.3045335560117" stroke="#c9a96e" stroke-width="0.9" opacity="0.55" stroke-linecap="round"/><line x1="122.49999999999993" y1="225.76606241341204" x2="115.99999999999993" y2="214.50773216421433" stroke="#c9a96e" stroke-width="0.9" opacity="0.7000000000000001" stroke-linecap="round"/><line x1="144.93475692456724" y1="208.7094880534688" x2="142.54061592128755" y2="202.13163970796742" stroke="#c9a96e" stroke-width="0.9" opacity="0.55" stroke-linecap="round"/><line x1="172.04264339562422" y1="201.44595176503452" x2="170.82710615195572" y2="194.55229749394906" stroke="#c9a96e" stroke-width="0.9" opacity="0.55" stroke-linecap="round"/>
    <circle cx="200" cy="360" r="150" fill="none" stroke="#c9a96e" stroke-width="0.8" opacity="0.4" stroke-dasharray="1 4"/>
    <circle cx="200" cy="360" r="108" fill="none" stroke="#c9a96e" stroke-width="1" opacity="0.55"/>
    <line x1="200" y1="300" x2="200" y2="260" stroke="#c9a96e" stroke-width="0.9" opacity="0.45" stroke-linecap="round"/><line x1="222.9610059419054" y1="304.5672280493228" x2="238.268343236509" y2="267.6120467488713" stroke="#c9a96e" stroke-width="0.9" opacity="0.45" stroke-linecap="round"/><line x1="242.42640687119285" y1="317.57359312880715" x2="270.71067811865476" y2="289.28932188134524" stroke="#c9a96e" stroke-width="0.9" opacity="0.45" stroke-linecap="round"/><line x1="255.4327719506772" y1="337.0389940580946" x2="292.3879532511287" y2="321.731656763491" stroke="#c9a96e" stroke-width="0.9" opacity="0.45" stroke-linecap="round"/><line x1="260" y1="360" x2="300" y2="360" stroke="#c9a96e" stroke-width="0.9" opacity="0.45" stroke-linecap="round"/><line x1="255.4327719506772" y1="382.9610059419054" x2="292.3879532511287" y2="398.268343236509" stroke="#c9a96e" stroke-width="0.9" opacity="0.45" stroke-linecap="round"/><line x1="242.42640687119285" y1="402.42640687119285" x2="270.71067811865476" y2="430.71067811865476" stroke="#c9a96e" stroke-width="0.9" opacity="0.45" stroke-linecap="round"/><line x1="222.9610059419054" y1="415.4327719506772" x2="238.268343236509" y2="452.3879532511287" stroke="#c9a96e" stroke-width="0.9" opacity="0.45" stroke-linecap="round"/><line x1="200" y1="420" x2="200" y2="460" stroke="#c9a96e" stroke-width="0.9" opacity="0.45" stroke-linecap="round"/><line x1="177.0389940580946" y1="415.4327719506772" x2="161.73165676349103" y2="452.3879532511287" stroke="#c9a96e" stroke-width="0.9" opacity="0.45" stroke-linecap="round"/><line x1="157.57359312880715" y1="402.42640687119285" x2="129.28932188134524" y2="430.71067811865476" stroke="#c9a96e" stroke-width="0.9" opacity="0.45" stroke-linecap="round"/><line x1="144.5672280493228" y1="382.9610059419054" x2="107.61204674887132" y2="398.268343236509" stroke="#c9a96e" stroke-width="0.9" opacity="0.45" stroke-linecap="round"/><line x1="140" y1="360" x2="100" y2="360" stroke="#c9a96e" stroke-width="0.9" opacity="0.45" stroke-linecap="round"/><line x1="144.56722804932278" y1="337.03899405809466" x2="107.61204674887131" y2="321.73165676349106" stroke="#c9a96e" stroke-width="0.9" opacity="0.45" stroke-linecap="round"/><line x1="157.57359312880715" y1="317.57359312880715" x2="129.28932188134524" y2="289.28932188134524" stroke="#c9a96e" stroke-width="0.9" opacity="0.45" stroke-linecap="round"/><line x1="177.03899405809463" y1="304.5672280493228" x2="161.73165676349106" y2="267.6120467488713" stroke="#c9a96e" stroke-width="0.9" opacity="0.45" stroke-linecap="round"/>
    <polygon points="200,298 210.33,335.06 243.84,316.16 224.94,349.67 262,360 224.94,370.33 243.84,403.84 210.33,384.94 200,422 189.67,384.94 156.16,403.84 175.06,370.33 138,360 175.06,349.67 156.16,316.16 189.67,335.06" fill="none" stroke="#c9a96e" stroke-width="1.8" opacity="1"/>
    <text x="200" y="369" text-anchor="middle" font-family="Georgia, 'Times New Roman', serif" font-size="27" fill="#f0dcae">W</text>
    <text x="200" y="594" text-anchor="middle" font-family="Georgia, serif" font-size="14" letter-spacing="5" fill="#c9a96e" opacity="0.8">WYNDRALORE</text>
  </g></svg>