<svg xmlns="http://www.w3.org/2000/svg" viewBox="0 0 400 640" width="400" height="640"><defs>
    <radialGradient id="bgGrad" cx="50%" cy="38%" r="75%">
      <stop offset="0%" stop-color="#12162a"/>
      <stop offset="100%" stop-color="#0b0e1a"/>
    </radialGradient>
    <linearGradient id="sheen" x1="0%" y1="0%" x2="100%" y2="100%">
      <stop offset="35%" stop-color="#c9a96e" stop-opacity="0"/>
      <stop offset="50%" stop-color="#c9a96e" stop-opacity="0.14"/>
      <stop offset="65%" stop-color="#c9a96e" stop-opacity="0"/>
    </linearGradient>
    <symbol id="sym-wands" viewBox="-20 -20 40 40"><g>
    <line x1="0" y1="-18" x2="0" y2="18" stroke="#c9a96e" stroke-width="2" stroke-linecap="round" transform="rotate(18)"/>
    <line x1="-5" y1="-10" x2="5" y2="-6" stroke="#c9a96e" stroke-width="1.3" transform="rotate(18)"/>
    <line x1="-5" y1="2" x2="5" y2="6" stroke="#c9a96e" stroke-width="1.3" transform="rotate(18)"/>
  </g></symbol>
<symbol id="sym-cups" viewBox="-20 -20 40 40"><g>
    <path d="M -9 -12 L 9 -12 L 5 6 A 5 5 0 0 1 -5 6 Z" fill="none" stroke="#c9a96e" stroke-width="1.6"/>
    <line x1="0" y1="6" x2="0" y2="14" stroke="#c9a96e" stroke-width="1.6"/>
    <line x1="-6" y1="16" x2="6" y2="16" stroke="#c9a96e" stroke-width="1.6"/>
  </g></symbol>
<symbol id="sym-swords" viewBox="-20 -20 40 40"><g>
    <line x1="0" y1="-18" x2="0" y2="14" stroke="#c9a96e" stroke-width="2"/>
    <line x1="-7" y1="-6" x2="7" y2="-6" stroke="#c9a96e" stroke-width="1.6"/>
    <circle cx="0" cy="17" r="2.2" fill="#c9a96e"/>
  </g></symbol>
<symbol id="sym-pentacles" viewBox="-20 -20 40 40"><g>
    <circle cx="0" cy="0" r="13" fill="none" stroke="#c9a96e" stroke-width="1.5" opacity="1"/>
    <polygon points="0,-8.4 2,-2.75 7.99,-2.6 3.23,1.05 4.94,6.8 0,3.4 -4.94,6.8 -3.23,1.05 -7.99,-2.6 -2,-2.75" fill="none" stroke="#c9a96e" stroke-width="1.2" opacity="1"/>
  </g></symbol>
  </defs>
    <rect x="0" y="0" width="400" height="640" fill="url(#bgGrad)"/>
    <rect x="0" y="0" width="400" height="640" fill="url(#sheen)"/>
    <rect x="14" y="14" width="372" height="612" fill="none" stroke="#c9a96e" stroke-width="1.6" opacity="0.9"/>
    <rect x="21" y="21" width="358" height="598" fill="none" stroke="#c9a96e" stroke-width="0.8" opacity="0.55"/>
    <circle cx="14" cy="14" r="3" fill="#c9a96e"/><circle cx="386" cy="14" r="3" fill="#c9a96e"/><circle cx="14" cy="626" r="3" fill="#c9a96e"/><circle cx="386" cy="626" r="3" fill="#c9a96e"/>
  <polygon points="200,240 209.95,275.98 242.43,257.57 224.02,290.05 260,300 224.02,309.95 242.43,342.43 209.95,324.02 200,360 190.05,324.02 157.57,342.43 175.98,309.95 140,300 175.98,290.05 157.57,257.57 190.05,275.98" fill="none" stroke="#c9a96e" stroke-width="1.6" opacity="1"/><path d="M 100 410 Q 112.5 394, 125 410 Q 137.5 426, 150 410 Q 162.5 394, 175 410 Q 187.5 426, 200 410 Q 212.5 394, 225 410 Q 237.5 426, 250 410 Q 262.5 394, 275 410 Q 287.5 426, 300 410" fill="none" stroke="#c9a96e" stroke-width="1.4" opacity="0.7" stroke-linecap="round" stroke-linejoin="round"/><polygon points="90,222 91.5,227.4 96.93,226 93,230 96.93,234 91.5,232.6 90,238 88.5,232.6 83.07,234 87,230 83.07,226 88.5,227.4" fill="none" stroke="#c9a96e" stroke-width="1" opacity="0.6"/><polygon points="134,242 135.5,247.4 140.93,246 137,250 140.93,254 135.5,252.6 134,258 132.5,252.6 127.07,254 131,250 127.07,246 132.5,247.4" fill="none" stroke="#c9a96e" stroke-width="1" opacity="0.6"/><polygon points="178,222 179.5,227.4 184.93,226 181,230 184.93,234 179.5,232.6 178,238 176.5,232.6 171.07,234 175,230 171.07,226 176.5,227.4" fill="none" stroke="#c9a96e" stroke-width="1" opacity="0.6"/><polygon points="222,242 223.5,247.4 228.93,246 225,250 228.93,254 223.5,252.6 222,258 220.5,252.6 215.07,254 219,250 215.07,246 220.5,247.4" fill="none" stroke="#c9a96e" stroke-width="1" opacity="0.6"/><polygon points="266,222 267.5,227.4 272.93,226 269,230 272.93,234 267.5,232.6 266,238 264.5,232.6 259.07,234 263,230 259.07,226 264.5,227.4" fill="none" stroke="#c9a96e" stroke-width="1" opacity="0.6"/><polygon points="310,242 311.5,247.4 316.93,246 313,250 316.93,254 311.5,252.6 310,258 308.5,252.6 303.07,254 307,250 303.07,246 308.5,247.4" fill="none" stroke="#c9a96e" stroke-width="1" opacity="0.6"/>
    <text x="200" y="70" text-anchor="middle" font-family="Georgia, 'Times New Roman', serif" font-size="20" letter-spacing="4" fill="#c9a96e" opacity="0.9">XVII</text>
    <line x1="140" y1="86" x2="260" y2="86" stroke="#c9a96e" stroke-width="1" opacity="0.5"/>
    <text x="200" y="594" text-anchor="middle" font-family="Georgia, 'Times New Roman', serif" font-size="25" letter-spacing="1.5" fill="#e4c894">THE STAR</text>
  </svg>