<svg xmlns="http://www.w3.org/2000/svg" viewBox="0 0 400 640" width="400" height="640"><defs>
    <radialGradient id="bgGrad" cx="50%" cy="38%" r="75%">
      <stop offset="0%" stop-color="#12162a"/>
      <stop offset="100%" stop-color="#0b0e1a"/>
    </radialGradient>
    <linearGradient id="sheen" x1="0%" y1="0%" x2="100%" y2="100%">
      <stop offset="35%" stop-color="#c9a96e" stop-opacity="0"/>
      <stop offset="50%" stop-color="#c9a96e" stop-opacity="0.14"/>
      <stop offset="65%" stop-color="#c9a96e" stop-opacity="0"/>
    </linearGradient>
    <radialGradient id="halo" cx="50%" cy="50%" r="50%">
      <stop offset="0%" stop-color="#e4c894" stop-opacity="0.13"/>
      <stop offset="45%" stop-color="#e4c894" stop-opacity="0.06"/>
      <stop offset="100%" stop-color="#e4c894" stop-opacity="0"/>
    </radialGradient>
    <filter id="glow" x="-40%" y="-40%" width="180%" height="180%">
      <feGaussianBlur stdDeviation="3.5" result="b"/>
      <feMerge><feMergeNode in="b"/><feMergeNode in="SourceGraphic"/></feMerge>
    </filter>
    <symbol id="sym-wands" viewBox="-20 -20 40 40"><g>
    <line x1="0" y1="-18" x2="0" y2="18" stroke="#c9a96e" stroke-width="2" stroke-linecap="round" transform="rotate(18)"/>
    <line x1="-5" y1="-10" x2="5" y2="-6" stroke="#c9a96e" stroke-width="1.3" transform="rotate(18)"/>
    <line x1="-5" y1="2" x2="5" y2="6" stroke="#c9a96e" stroke-width="1.3" transform="rotate(18)"/>
  </g></symbol>
<symbol id="sym-cups" viewBox="-20 -20 40 40"><g>
    <path d="M -9 -12 L 9 -12 L 5 6 A 5 5 0 0 1 -5 6 Z" fill="none" stroke="#c9a96e" stroke-width="1.6"/>
    <line x1="0" y1="6" x2="0" y2="14" stroke="#c9a96e" stroke-width="1.6"/>
    <line x1="-6" y1="16" x2="6" y2="16" stroke="#c9a96e" stroke-width="1.6"/>
  </g></symbol>
<symbol id="sym-swords" viewBox="-20 -20 40 40"><g>
    <line x1="0" y1="-18" x2="0" y2="14" stroke="#c9a96e" stroke-width="2"/>
    <line x1="-7" y1="-6" x2="7" y2="-6" stroke="#c9a96e" stroke-width="1.6"/>
    <circle cx="0" cy="17" r="2.2" fill="#c9a96e"/>
  </g></symbol>
<symbol id="sym-pentacles" viewBox="-20 -20 40 40"><g>
    <circle cx="0" cy="0" r="13" fill="none" stroke="#c9a96e" stroke-width="1.5" opacity="1"/>
    <polygon points="0,-8.4 2,-2.75 7.99,-2.6 3.23,1.05 4.94,6.8 0,3.4 -4.94,6.8 -3.23,1.05 -7.99,-2.6 -2,-2.75" fill="none" stroke="#c9a96e" stroke-width="1.2" opacity="1"/>
  </g></symbol>
  </defs>
    <rect x="0" y="0" width="400" height="640" fill="url(#bgGrad)"/>
    <ellipse cx="200" cy="330" rx="185" ry="215" fill="url(#halo)"/>
    <rect x="0" y="0" width="400" height="640" fill="url(#sheen)"/>
    <rect x="14" y="14" width="372" height="612" fill="none" stroke="#c9a96e" stroke-width="1.6" opacity="0.9"/>
    <rect x="21" y="21" width="358" height="598" fill="none" stroke="#c9a96e" stroke-width="0.7" opacity="0.5"/>
    <rect x="27" y="27" width="346" height="586" fill="none" stroke="#c9a96e" stroke-width="0.4" opacity="0.25"/>
    <polygon points="44,38 50,44 44,50 38,44" fill="#e4c894" opacity="1"/><polygon points="356,38 362,44 356,50 350,44" fill="#e4c894" opacity="1"/><polygon points="44,590 50,596 44,602 38,596" fill="#e4c894" opacity="1"/><polygon points="356,590 362,596 356,602 350,596" fill="#e4c894" opacity="1"/>
    <g fill="none" stroke="#c9a96e" stroke-width="0.7" opacity="0.5">
      <path d="M30 58 Q30 30 58 30"/>
      <path d="M370 58 Q370 30 342 30"/>
      <path d="M30 582 Q30 610 58 610"/>
      <path d="M370 582 Q370 610 342 610"/>
    </g>
    <g stroke="#c9a96e" stroke-width="0.9" stroke-linecap="round" opacity="0.53"><line x1="45.1" y1="320.1" x2="45.1" y2="326.9"/><line x1="41.7" y1="323.5" x2="48.5" y2="323.5"/></g><g stroke="#c9a96e" stroke-width="0.9" stroke-linecap="round" opacity="0.58"><line x1="355.8" y1="244.8" x2="355.8" y2="252.2"/><line x1="352.2" y1="248.5" x2="359.5" y2="248.5"/></g><g stroke="#c9a96e" stroke-width="0.9" stroke-linecap="round" opacity="0.54"><line x1="52.1" y1="234.9" x2="52.1" y2="241.9"/><line x1="48.7" y1="238.4" x2="55.6" y2="238.4"/></g><g stroke="#c9a96e" stroke-width="0.9" stroke-linecap="round" opacity="0.59"><line x1="328.1" y1="166.9" x2="328.1" y2="175.8"/><line x1="323.7" y1="171.4" x2="332.5" y2="171.4"/></g><g stroke="#c9a96e" stroke-width="0.9" stroke-linecap="round" opacity="0.57"><line x1="73.4" y1="504.2" x2="73.4" y2="511.9"/><line x1="69.5" y1="508.0" x2="77.2" y2="508.0"/></g><g stroke="#c9a96e" stroke-width="0.9" stroke-linecap="round" opacity="0.47"><line x1="349.6" y1="385.4" x2="349.6" y2="394.1"/><line x1="345.3" y1="389.8" x2="353.9" y2="389.8"/></g>
  <g filter="url(#glow)"><polygon points="200,240 209.95,275.98 242.43,257.57 224.02,290.05 260,300 224.02,309.95 242.43,342.43 209.95,324.02 200,360 190.05,324.02 157.57,342.43 175.98,309.95 140,300 175.98,290.05 157.57,257.57 190.05,275.98" fill="none" stroke="#c9a96e" stroke-width="1.6" opacity="1"/><path d="M 100 410 Q 112.5 394, 125 410 Q 137.5 426, 150 410 Q 162.5 394, 175 410 Q 187.5 426, 200 410 Q 212.5 394, 225 410 Q 237.5 426, 250 410 Q 262.5 394, 275 410 Q 287.5 426, 300 410" fill="none" stroke="#c9a96e" stroke-width="1.4" opacity="0.7" stroke-linecap="round" stroke-linejoin="round"/><polygon points="90,222 91.5,227.4 96.93,226 93,230 96.93,234 91.5,232.6 90,238 88.5,232.6 83.07,234 87,230 83.07,226 88.5,227.4" fill="none" stroke="#c9a96e" stroke-width="1" opacity="0.6"/><polygon points="134,242 135.5,247.4 140.93,246 137,250 140.93,254 135.5,252.6 134,258 132.5,252.6 127.07,254 131,250 127.07,246 132.5,247.4" fill="none" stroke="#c9a96e" stroke-width="1" opacity="0.6"/><polygon points="178,222 179.5,227.4 184.93,226 181,230 184.93,234 179.5,232.6 178,238 176.5,232.6 171.07,234 175,230 171.07,226 176.5,227.4" fill="none" stroke="#c9a96e" stroke-width="1" opacity="0.6"/><polygon points="222,242 223.5,247.4 228.93,246 225,250 228.93,254 223.5,252.6 222,258 220.5,252.6 215.07,254 219,250 215.07,246 220.5,247.4" fill="none" stroke="#c9a96e" stroke-width="1" opacity="0.6"/><polygon points="266,222 267.5,227.4 272.93,226 269,230 272.93,234 267.5,232.6 266,238 264.5,232.6 259.07,234 263,230 259.07,226 264.5,227.4" fill="none" stroke="#c9a96e" stroke-width="1" opacity="0.6"/><polygon points="310,242 311.5,247.4 316.93,246 313,250 316.93,254 311.5,252.6 310,258 308.5,252.6 303.07,254 307,250 303.07,246 308.5,247.4" fill="none" stroke="#c9a96e" stroke-width="1" opacity="0.6"/>
    <text x="200" y="70" text-anchor="middle" font-family="Georgia, 'Times New Roman', serif" font-size="20" letter-spacing="4" fill="#f0dcae">XVII</text>
    <polygon points="146,60 150,64 146,68 142,64" fill="#c9a96e" opacity="0.8"/>
    <polygon points="254,60 258,64 254,68 250,64" fill="#c9a96e" opacity="0.8"/>
    <line x1="140" y1="88" x2="192" y2="88" stroke="#c9a96e" stroke-width="0.9" opacity="0.5"/>
    <line x1="208" y1="88" x2="260" y2="88" stroke="#c9a96e" stroke-width="0.9" opacity="0.5"/>
    <polygon points="200,83.5 204.5,88 200,92.5 195.5,88" fill="#c9a96e" opacity="0.7"/>
    <text x="200" y="594" text-anchor="middle" font-family="Georgia, 'Times New Roman', serif" font-size="25" letter-spacing="1.5" fill="#f0dcae">THE STAR</text><line x1="84" y1="588" x2="112" y2="588" stroke="#c9a96e" stroke-width="0.8" opacity="0.45"/><line x1="288" y1="588" x2="316" y2="588" stroke="#c9a96e" stroke-width="0.8" opacity="0.45"/>
  </g></svg>