<svg xmlns="http://www.w3.org/2000/svg" viewBox="0 0 400 640" width="400" height="640"><defs>
    <radialGradient id="bgGrad" cx="50%" cy="38%" r="75%">
      <stop offset="0%" stop-color="#12162a"/>
      <stop offset="100%" stop-color="#0b0e1a"/>
    </radialGradient>
    <linearGradient id="sheen" x1="0%" y1="0%" x2="100%" y2="100%">
      <stop offset="35%" stop-color="#c9a96e" stop-opacity="0"/>
      <stop offset="50%" stop-color="#c9a96e" stop-opacity="0.14"/>
      <stop offset="65%" stop-color="#c9a96e" stop-opacity="0"/>
    </linearGradient>
    <radialGradient id="halo" cx="50%" cy="50%" r="50%">
      <stop offset="0%" stop-color="#e4c894" stop-opacity="0.13"/>
      <stop offset="45%" stop-color="#e4c894" stop-opacity="0.06"/>
      <stop offset="100%" stop-color="#e4c894" stop-opacity="0"/>
    </radialGradient>
    <filter id="glow" x="-40%" y="-40%" width="180%" height="180%">
      <feGaussianBlur stdDeviation="3.5" result="b"/>
      <feMerge><feMergeNode in="b"/><feMergeNode in="SourceGraphic"/></feMerge>
    </filter>
    <symbol id="sym-wands" viewBox="-20 -20 40 40"><g>
    <line x1="0" y1="-18" x2="0" y2="18" stroke="#c9a96e" stroke-width="2" stroke-linecap="round" transform="rotate(18)"/>
    <line x1="-5" y1="-10" x2="5" y2="-6" stroke="#c9a96e" stroke-width="1.3" transform="rotate(18)"/>
    <line x1="-5" y1="2" x2="5" y2="6" stroke="#c9a96e" stroke-width="1.3" transform="rotate(18)"/>
  </g></symbol>
<symbol id="sym-cups" viewBox="-20 -20 40 40"><g>
    <path d="M -9 -12 L 9 -12 L 5 6 A 5 5 0 0 1 -5 6 Z" fill="none" stroke="#c9a96e" stroke-width="1.6"/>
    <line x1="0" y1="6" x2="0" y2="14" stroke="#c9a96e" stroke-width="1.6"/>
    <line x1="-6" y1="16" x2="6" y2="16" stroke="#c9a96e" stroke-width="1.6"/>
  </g></symbol>
<symbol id="sym-swords" viewBox="-20 -20 40 40"><g>
    <line x1="0" y1="-18" x2="0" y2="14" stroke="#c9a96e" stroke-width="2"/>
    <line x1="-7" y1="-6" x2="7" y2="-6" stroke="#c9a96e" stroke-width="1.6"/>
    <circle cx="0" cy="17" r="2.2" fill="#c9a96e"/>
  </g></symbol>
<symbol id="sym-pentacles" viewBox="-20 -20 40 40"><g>
    <circle cx="0" cy="0" r="13" fill="none" stroke="#c9a96e" stroke-width="1.5" opacity="1"/>
    <polygon points="0,-8.4 2,-2.75 7.99,-2.6 3.23,1.05 4.94,6.8 0,3.4 -4.94,6.8 -3.23,1.05 -7.99,-2.6 -2,-2.75" fill="none" stroke="#c9a96e" stroke-width="1.2" opacity="1"/>
  </g></symbol>
  </defs>
    <rect x="0" y="0" width="400" height="640" fill="url(#bgGrad)"/>
    <ellipse cx="200" cy="330" rx="185" ry="215" fill="url(#halo)"/>
    <rect x="0" y="0" width="400" height="640" fill="url(#sheen)"/>
    <rect x="14" y="14" width="372" height="612" fill="none" stroke="#c9a96e" stroke-width="1.6" opacity="0.9"/>
    <rect x="21" y="21" width="358" height="598" fill="none" stroke="#c9a96e" stroke-width="0.7" opacity="0.5"/>
    <rect x="27" y="27" width="346" height="586" fill="none" stroke="#c9a96e" stroke-width="0.4" opacity="0.25"/>
    <polygon points="44,38 50,44 44,50 38,44" fill="#e4c894" opacity="1"/><polygon points="356,38 362,44 356,50 350,44" fill="#e4c894" opacity="1"/><polygon points="44,590 50,596 44,602 38,596" fill="#e4c894" opacity="1"/><polygon points="356,590 362,596 356,602 350,596" fill="#e4c894" opacity="1"/>
    <g fill="none" stroke="#c9a96e" stroke-width="0.7" opacity="0.5">
      <path d="M30 58 Q30 30 58 30"/>
      <path d="M370 58 Q370 30 342 30"/>
      <path d="M30 582 Q30 610 58 610"/>
      <path d="M370 582 Q370 610 342 610"/>
    </g>
    <g stroke="#c9a96e" stroke-width="0.9" stroke-linecap="round" opacity="0.44"><line x1="65.2" y1="168.5" x2="65.2" y2="175.6"/><line x1="61.6" y1="172.1" x2="68.8" y2="172.1"/></g><g stroke="#c9a96e" stroke-width="0.9" stroke-linecap="round" opacity="0.55"><line x1="352.8" y1="248.6" x2="352.8" y2="254.8"/><line x1="349.7" y1="251.7" x2="356.0" y2="251.7"/></g><g stroke="#c9a96e" stroke-width="0.9" stroke-linecap="round" opacity="0.56"><line x1="58.9" y1="161.8" x2="58.9" y2="168.5"/><line x1="55.6" y1="165.1" x2="62.3" y2="165.1"/></g><g stroke="#c9a96e" stroke-width="0.9" stroke-linecap="round" opacity="0.56"><line x1="336.3" y1="204.5" x2="336.3" y2="211.0"/><line x1="333.1" y1="207.8" x2="339.6" y2="207.8"/></g><g stroke="#c9a96e" stroke-width="0.9" stroke-linecap="round" opacity="0.57"><line x1="67.4" y1="303.9" x2="67.4" y2="311.9"/><line x1="63.4" y1="307.9" x2="71.4" y2="307.9"/></g><g stroke="#c9a96e" stroke-width="0.9" stroke-linecap="round" opacity="0.57"><line x1="330.2" y1="179.2" x2="330.2" y2="186.3"/><line x1="326.6" y1="182.8" x2="333.8" y2="182.8"/></g>
  <g filter="url(#glow)"><rect x="170" y="250" width="60" height="160" fill="none" stroke="#c9a96e" stroke-width="1.6"/><path d="M 215.6 255 L 179.2 320 L 202.6 320 L 184.4 385 L 223.4 313.5 L 202.6 307 Z" fill="#c9a96e" stroke="none" stroke-width="1.4" opacity="0.9" stroke-linecap="round" stroke-linejoin="round"/><line x1="200" y1="242" x2="200" y2="208" stroke="#c9a96e" stroke-width="1.1" opacity="0.75" stroke-linecap="round"/><line x1="203.85672565811925" y1="243.40373334128614" x2="225.71150438746156" y2="217.35822227524088" stroke="#c9a96e" stroke-width="1.1" opacity="0.75" stroke-linecap="round"/><line x1="205.90884651807326" y1="246.95811093399843" x2="239.39231012048833" y2="241.0540728933228" stroke="#c9a96e" stroke-width="1.1" opacity="0.75" stroke-linecap="round"/><line x1="205.19615242270663" y1="251" x2="234.64101615137756" y2="268" stroke="#c9a96e" stroke-width="1.1" opacity="0.75" stroke-linecap="round"/><line x1="202.05212085995402" y1="253.63815572471546" x2="213.68080573302674" y2="285.5877048314363" stroke="#c9a96e" stroke-width="1.1" opacity="0.75" stroke-linecap="round"/><line x1="197.94787914004598" y1="253.63815572471546" x2="186.31919426697326" y2="285.5877048314363" stroke="#c9a96e" stroke-width="1.1" opacity="0.75" stroke-linecap="round"/><line x1="194.80384757729337" y1="251" x2="165.35898384862244" y2="268" stroke="#c9a96e" stroke-width="1.1" opacity="0.75" stroke-linecap="round"/><line x1="194.09115348192674" y1="246.95811093399843" x2="160.60768987951167" y2="241.05407289332277" stroke="#c9a96e" stroke-width="1.1" opacity="0.75" stroke-linecap="round"/><line x1="196.14327434188075" y1="243.40373334128614" x2="174.2884956125384" y2="217.35822227524088" stroke="#c9a96e" stroke-width="1.1" opacity="0.75" stroke-linecap="round"/>
    <text x="200" y="70" text-anchor="middle" font-family="Georgia, 'Times New Roman', serif" font-size="20" letter-spacing="4" fill="#f0dcae">XVI</text>
    <polygon points="153,60 157,64 153,68 149,64" fill="#c9a96e" opacity="0.8"/>
    <polygon points="247,60 251,64 247,68 243,64" fill="#c9a96e" opacity="0.8"/>
    <line x1="140" y1="88" x2="192" y2="88" stroke="#c9a96e" stroke-width="0.9" opacity="0.5"/>
    <line x1="208" y1="88" x2="260" y2="88" stroke="#c9a96e" stroke-width="0.9" opacity="0.5"/>
    <polygon points="200,83.5 204.5,88 200,92.5 195.5,88" fill="#c9a96e" opacity="0.7"/>
    <text x="200" y="594" text-anchor="middle" font-family="Georgia, 'Times New Roman', serif" font-size="25" letter-spacing="1.5" fill="#f0dcae">THE TOWER</text><line x1="74.75" y1="588" x2="102.75" y2="588" stroke="#c9a96e" stroke-width="0.8" opacity="0.45"/><line x1="297.25" y1="588" x2="325.25" y2="588" stroke="#c9a96e" stroke-width="0.8" opacity="0.45"/>
  </g></svg>