<svg xmlns="http://www.w3.org/2000/svg" viewBox="0 0 400 640" width="400" height="640"><defs>
    <radialGradient id="bgGrad" cx="50%" cy="38%" r="75%">
      <stop offset="0%" stop-color="#12162a"/>
      <stop offset="100%" stop-color="#0b0e1a"/>
    </radialGradient>
    <linearGradient id="sheen" x1="0%" y1="0%" x2="100%" y2="100%">
      <stop offset="35%" stop-color="#c9a96e" stop-opacity="0"/>
      <stop offset="50%" stop-color="#c9a96e" stop-opacity="0.14"/>
      <stop offset="65%" stop-color="#c9a96e" stop-opacity="0"/>
    </linearGradient>
    <radialGradient id="halo" cx="50%" cy="50%" r="50%">
      <stop offset="0%" stop-color="#e4c894" stop-opacity="0.13"/>
      <stop offset="45%" stop-color="#e4c894" stop-opacity="0.06"/>
      <stop offset="100%" stop-color="#e4c894" stop-opacity="0"/>
    </radialGradient>
    <filter id="glow" x="-40%" y="-40%" width="180%" height="180%">
      <feGaussianBlur stdDeviation="3.5" result="b"/>
      <feMerge><feMergeNode in="b"/><feMergeNode in="SourceGraphic"/></feMerge>
    </filter>
    <symbol id="sym-wands" viewBox="-20 -20 40 40"><g>
    <line x1="0" y1="-18" x2="0" y2="18" stroke="#c9a96e" stroke-width="2" stroke-linecap="round" transform="rotate(18)"/>
    <line x1="-5" y1="-10" x2="5" y2="-6" stroke="#c9a96e" stroke-width="1.3" transform="rotate(18)"/>
    <line x1="-5" y1="2" x2="5" y2="6" stroke="#c9a96e" stroke-width="1.3" transform="rotate(18)"/>
  </g></symbol>
<symbol id="sym-cups" viewBox="-20 -20 40 40"><g>
    <path d="M -9 -12 L 9 -12 L 5 6 A 5 5 0 0 1 -5 6 Z" fill="none" stroke="#c9a96e" stroke-width="1.6"/>
    <line x1="0" y1="6" x2="0" y2="14" stroke="#c9a96e" stroke-width="1.6"/>
    <line x1="-6" y1="16" x2="6" y2="16" stroke="#c9a96e" stroke-width="1.6"/>
  </g></symbol>
<symbol id="sym-swords" viewBox="-20 -20 40 40"><g>
    <line x1="0" y1="-18" x2="0" y2="14" stroke="#c9a96e" stroke-width="2"/>
    <line x1="-7" y1="-6" x2="7" y2="-6" stroke="#c9a96e" stroke-width="1.6"/>
    <circle cx="0" cy="17" r="2.2" fill="#c9a96e"/>
  </g></symbol>
<symbol id="sym-pentacles" viewBox="-20 -20 40 40"><g>
    <circle cx="0" cy="0" r="13" fill="none" stroke="#c9a96e" stroke-width="1.5" opacity="1"/>
    <polygon points="0,-8.4 2,-2.75 7.99,-2.6 3.23,1.05 4.94,6.8 0,3.4 -4.94,6.8 -3.23,1.05 -7.99,-2.6 -2,-2.75" fill="none" stroke="#c9a96e" stroke-width="1.2" opacity="1"/>
  </g></symbol>
  </defs>
    <rect x="0" y="0" width="400" height="640" fill="url(#bgGrad)"/>
    <ellipse cx="200" cy="330" rx="185" ry="215" fill="url(#halo)"/>
    <rect x="0" y="0" width="400" height="640" fill="url(#sheen)"/>
    <rect x="14" y="14" width="372" height="612" fill="none" stroke="#c9a96e" stroke-width="1.6" opacity="0.9"/>
    <rect x="21" y="21" width="358" height="598" fill="none" stroke="#c9a96e" stroke-width="0.7" opacity="0.5"/>
    <rect x="27" y="27" width="346" height="586" fill="none" stroke="#c9a96e" stroke-width="0.4" opacity="0.25"/>
    <polygon points="44,38 50,44 44,50 38,44" fill="#e4c894" opacity="1"/><polygon points="356,38 362,44 356,50 350,44" fill="#e4c894" opacity="1"/><polygon points="44,590 50,596 44,602 38,596" fill="#e4c894" opacity="1"/><polygon points="356,590 362,596 356,602 350,596" fill="#e4c894" opacity="1"/>
    <g fill="none" stroke="#c9a96e" stroke-width="0.7" opacity="0.5">
      <path d="M30 58 Q30 30 58 30"/>
      <path d="M370 58 Q370 30 342 30"/>
      <path d="M30 582 Q30 610 58 610"/>
      <path d="M370 582 Q370 610 342 610"/>
    </g>
    <g stroke="#c9a96e" stroke-width="0.9" stroke-linecap="round" opacity="0.54"><line x1="65.4" y1="334.7" x2="65.4" y2="342.3"/><line x1="61.6" y1="338.5" x2="69.2" y2="338.5"/></g><g stroke="#c9a96e" stroke-width="0.9" stroke-linecap="round" opacity="0.51"><line x1="336.1" y1="394.4" x2="336.1" y2="401.6"/><line x1="332.5" y1="398.0" x2="339.7" y2="398.0"/></g><g stroke="#c9a96e" stroke-width="0.9" stroke-linecap="round" opacity="0.54"><line x1="73.2" y1="134.9" x2="73.2" y2="141.3"/><line x1="70.0" y1="138.1" x2="76.4" y2="138.1"/></g><g stroke="#c9a96e" stroke-width="0.9" stroke-linecap="round" opacity="0.37"><line x1="334.8" y1="492.5" x2="334.8" y2="500.0"/><line x1="331.1" y1="496.2" x2="338.5" y2="496.2"/></g><g stroke="#c9a96e" stroke-width="0.9" stroke-linecap="round" opacity="0.59"><line x1="65.9" y1="147.7" x2="65.9" y2="154.6"/><line x1="62.4" y1="151.2" x2="69.3" y2="151.2"/></g><g stroke="#c9a96e" stroke-width="0.9" stroke-linecap="round" opacity="0.40"><line x1="353.2" y1="174.2" x2="353.2" y2="182.4"/><line x1="349.1" y1="178.3" x2="357.3" y2="178.3"/></g>
  <g filter="url(#glow)"><circle cx="200" cy="340" r="46" fill="none" stroke="#c9a96e" stroke-width="1.8" opacity="1"/><line x1="200" y1="290" x2="200" y2="244" stroke="#c9a96e" stroke-width="1.4" opacity="1" stroke-linecap="round"/><line x1="219.1341716182545" y1="293.80602337443565" x2="236.73760950704863" y2="251.30756487891648" stroke="#c9a96e" stroke-width="1.4" opacity="1" stroke-linecap="round"/><line x1="235.35533905932738" y1="304.6446609406726" x2="267.88225099390854" y2="272.11774900609146" stroke="#c9a96e" stroke-width="1.4" opacity="1" stroke-linecap="round"/><line x1="246.19397662556435" y1="320.86582838174553" x2="288.6924351210835" y2="303.2623904929514" stroke="#c9a96e" stroke-width="1.4" opacity="1" stroke-linecap="round"/><line x1="250" y1="340" x2="296" y2="340" stroke="#c9a96e" stroke-width="1.4" opacity="1" stroke-linecap="round"/><line x1="246.19397662556435" y1="359.13417161825447" x2="288.6924351210835" y2="376.7376095070486" stroke="#c9a96e" stroke-width="1.4" opacity="1" stroke-linecap="round"/><line x1="235.35533905932738" y1="375.3553390593274" x2="267.88225099390854" y2="407.88225099390854" stroke="#c9a96e" stroke-width="1.4" opacity="1" stroke-linecap="round"/><line x1="219.1341716182545" y1="386.19397662556435" x2="236.73760950704863" y2="428.6924351210835" stroke="#c9a96e" stroke-width="1.4" opacity="1" stroke-linecap="round"/><line x1="200" y1="390" x2="200" y2="436" stroke="#c9a96e" stroke-width="1.4" opacity="1" stroke-linecap="round"/><line x1="180.8658283817455" y1="386.19397662556435" x2="163.2623904929514" y2="428.6924351210835" stroke="#c9a96e" stroke-width="1.4" opacity="1" stroke-linecap="round"/><line x1="164.64466094067262" y1="375.3553390593274" x2="132.11774900609146" y2="407.88225099390854" stroke="#c9a96e" stroke-width="1.4" opacity="1" stroke-linecap="round"/><line x1="153.80602337443565" y1="359.13417161825447" x2="111.30756487891648" y2="376.73760950704866" stroke="#c9a96e" stroke-width="1.4" opacity="1" stroke-linecap="round"/><line x1="150" y1="340" x2="104" y2="340" stroke="#c9a96e" stroke-width="1.4" opacity="1" stroke-linecap="round"/><line x1="153.80602337443565" y1="320.86582838174553" x2="111.30756487891645" y2="303.26239049295145" stroke="#c9a96e" stroke-width="1.4" opacity="1" stroke-linecap="round"/><line x1="164.64466094067262" y1="304.6446609406726" x2="132.11774900609143" y2="272.11774900609146" stroke="#c9a96e" stroke-width="1.4" opacity="1" stroke-linecap="round"/><line x1="180.86582838174553" y1="293.80602337443565" x2="163.2623904929514" y2="251.30756487891648" stroke="#c9a96e" stroke-width="1.4" opacity="1" stroke-linecap="round"/><circle cx="200" cy="340" r="30" fill="none" stroke="#c9a96e" stroke-width="1" opacity="0.6"/>
    <text x="200" y="70" text-anchor="middle" font-family="Georgia, 'Times New Roman', serif" font-size="20" letter-spacing="4" fill="#f0dcae">XIX</text>
    <polygon points="153,60 157,64 153,68 149,64" fill="#c9a96e" opacity="0.8"/>
    <polygon points="247,60 251,64 247,68 243,64" fill="#c9a96e" opacity="0.8"/>
    <line x1="140" y1="88" x2="192" y2="88" stroke="#c9a96e" stroke-width="0.9" opacity="0.5"/>
    <line x1="208" y1="88" x2="260" y2="88" stroke="#c9a96e" stroke-width="0.9" opacity="0.5"/>
    <polygon points="200,83.5 204.5,88 200,92.5 195.5,88" fill="#c9a96e" opacity="0.7"/>
    <text x="200" y="594" text-anchor="middle" font-family="Georgia, 'Times New Roman', serif" font-size="25" letter-spacing="1.5" fill="#f0dcae">THE SUN</text><line x1="93.25" y1="588" x2="121.25" y2="588" stroke="#c9a96e" stroke-width="0.8" opacity="0.45"/><line x1="278.75" y1="588" x2="306.75" y2="588" stroke="#c9a96e" stroke-width="0.8" opacity="0.45"/>
  </g></svg>