<svg xmlns="http://www.w3.org/2000/svg" viewBox="0 0 400 640" width="400" height="640"><defs>
    <radialGradient id="bgGrad" cx="50%" cy="38%" r="75%">
      <stop offset="0%" stop-color="#12162a"/>
      <stop offset="100%" stop-color="#0b0e1a"/>
    </radialGradient>
    <linearGradient id="sheen" x1="0%" y1="0%" x2="100%" y2="100%">
      <stop offset="35%" stop-color="#c9a96e" stop-opacity="0"/>
      <stop offset="50%" stop-color="#c9a96e" stop-opacity="0.14"/>
      <stop offset="65%" stop-color="#c9a96e" stop-opacity="0"/>
    </linearGradient>
    <radialGradient id="halo" cx="50%" cy="50%" r="50%">
      <stop offset="0%" stop-color="#e4c894" stop-opacity="0.13"/>
      <stop offset="45%" stop-color="#e4c894" stop-opacity="0.06"/>
      <stop offset="100%" stop-color="#e4c894" stop-opacity="0"/>
    </radialGradient>
    <filter id="glow" x="-40%" y="-40%" width="180%" height="180%">
      <feGaussianBlur stdDeviation="3.5" result="b"/>
      <feMerge><feMergeNode in="b"/><feMergeNode in="SourceGraphic"/></feMerge>
    </filter>
    <symbol id="sym-wands" viewBox="-20 -20 40 40"><g>
    <line x1="0" y1="-18" x2="0" y2="18" stroke="#c9a96e" stroke-width="2" stroke-linecap="round" transform="rotate(18)"/>
    <line x1="-5" y1="-10" x2="5" y2="-6" stroke="#c9a96e" stroke-width="1.3" transform="rotate(18)"/>
    <line x1="-5" y1="2" x2="5" y2="6" stroke="#c9a96e" stroke-width="1.3" transform="rotate(18)"/>
  </g></symbol>
<symbol id="sym-cups" viewBox="-20 -20 40 40"><g>
    <path d="M -9 -12 L 9 -12 L 5 6 A 5 5 0 0 1 -5 6 Z" fill="none" stroke="#c9a96e" stroke-width="1.6"/>
    <line x1="0" y1="6" x2="0" y2="14" stroke="#c9a96e" stroke-width="1.6"/>
    <line x1="-6" y1="16" x2="6" y2="16" stroke="#c9a96e" stroke-width="1.6"/>
  </g></symbol>
<symbol id="sym-swords" viewBox="-20 -20 40 40"><g>
    <line x1="0" y1="-18" x2="0" y2="14" stroke="#c9a96e" stroke-width="2"/>
    <line x1="-7" y1="-6" x2="7" y2="-6" stroke="#c9a96e" stroke-width="1.6"/>
    <circle cx="0" cy="17" r="2.2" fill="#c9a96e"/>
  </g></symbol>
<symbol id="sym-pentacles" viewBox="-20 -20 40 40"><g>
    <circle cx="0" cy="0" r="13" fill="none" stroke="#c9a96e" stroke-width="1.5" opacity="1"/>
    <polygon points="0,-8.4 2,-2.75 7.99,-2.6 3.23,1.05 4.94,6.8 0,3.4 -4.94,6.8 -3.23,1.05 -7.99,-2.6 -2,-2.75" fill="none" stroke="#c9a96e" stroke-width="1.2" opacity="1"/>
  </g></symbol>
  </defs>
    <rect x="0" y="0" width="400" height="640" fill="url(#bgGrad)"/>
    <ellipse cx="200" cy="330" rx="185" ry="215" fill="url(#halo)"/>
    <rect x="0" y="0" width="400" height="640" fill="url(#sheen)"/>
    <rect x="14" y="14" width="372" height="612" fill="none" stroke="#c9a96e" stroke-width="1.6" opacity="0.9"/>
    <rect x="21" y="21" width="358" height="598" fill="none" stroke="#c9a96e" stroke-width="0.7" opacity="0.5"/>
    <rect x="27" y="27" width="346" height="586" fill="none" stroke="#c9a96e" stroke-width="0.4" opacity="0.25"/>
    <polygon points="44,38 50,44 44,50 38,44" fill="#e4c894" opacity="1"/><polygon points="356,38 362,44 356,50 350,44" fill="#e4c894" opacity="1"/><polygon points="44,590 50,596 44,602 38,596" fill="#e4c894" opacity="1"/><polygon points="356,590 362,596 356,602 350,596" fill="#e4c894" opacity="1"/>
    <g fill="none" stroke="#c9a96e" stroke-width="0.7" opacity="0.5">
      <path d="M30 58 Q30 30 58 30"/>
      <path d="M370 58 Q370 30 342 30"/>
      <path d="M30 582 Q30 610 58 610"/>
      <path d="M370 582 Q370 610 342 610"/>
    </g>
    <g stroke="#c9a96e" stroke-width="0.9" stroke-linecap="round" opacity="0.39"><line x1="47.5" y1="130.3" x2="47.5" y2="137.2"/><line x1="44.1" y1="133.8" x2="51.0" y2="133.8"/></g><g stroke="#c9a96e" stroke-width="0.9" stroke-linecap="round" opacity="0.49"><line x1="332.9" y1="338.7" x2="332.9" y2="345.2"/><line x1="329.7" y1="342.0" x2="336.2" y2="342.0"/></g><g stroke="#c9a96e" stroke-width="0.9" stroke-linecap="round" opacity="0.51"><line x1="64.4" y1="203.1" x2="64.4" y2="209.8"/><line x1="61.1" y1="206.5" x2="67.8" y2="206.5"/></g><g stroke="#c9a96e" stroke-width="0.9" stroke-linecap="round" opacity="0.43"><line x1="345.2" y1="460.3" x2="345.2" y2="468.8"/><line x1="340.9" y1="464.6" x2="349.5" y2="464.6"/></g><g stroke="#c9a96e" stroke-width="0.9" stroke-linecap="round" opacity="0.58"><line x1="53.8" y1="130.7" x2="53.8" y2="138.3"/><line x1="50.0" y1="134.5" x2="57.6" y2="134.5"/></g><g stroke="#c9a96e" stroke-width="0.9" stroke-linecap="round" opacity="0.50"><line x1="342.9" y1="319.1" x2="342.9" y2="325.1"/><line x1="339.9" y1="322.1" x2="345.9" y2="322.1"/></g>
  <g filter="url(#glow)"><polygon points="200,234 203.5,243.94 213.86,242 207,250 213.86,258 203.5,256.06 200,266 196.5,256.06 186.14,258 193,250 186.14,242 196.5,243.94" fill="none" stroke="#c9a96e" stroke-width="1.4" opacity="1"/><rect x="154" y="300" width="92" height="60" fill="none" stroke="#c9a96e" stroke-width="1.6"/><circle cx="168" cy="386" r="22" fill="none" stroke="#c9a96e" stroke-width="1.5" opacity="1"/><circle cx="232" cy="386" r="22" fill="none" stroke="#c9a96e" stroke-width="1.5" opacity="1"/><polygon points="168,366 168,386 185.32,376 168,386 185.32,396 168,386 168,406 168,386 150.68,396 168,386 150.68,376 168,386" fill="none" stroke="#c9a96e" stroke-width="0.8" opacity="0.5"/><polygon points="232,366 232,386 249.32,376 232,386 249.32,396 232,386 232,406 232,386 214.68,396 232,386 214.68,376 232,386" fill="none" stroke="#c9a96e" stroke-width="0.8" opacity="0.5"/>
    <text x="200" y="70" text-anchor="middle" font-family="Georgia, 'Times New Roman', serif" font-size="20" letter-spacing="4" fill="#f0dcae">VII</text>
    <polygon points="153,60 157,64 153,68 149,64" fill="#c9a96e" opacity="0.8"/>
    <polygon points="247,60 251,64 247,68 243,64" fill="#c9a96e" opacity="0.8"/>
    <line x1="140" y1="88" x2="192" y2="88" stroke="#c9a96e" stroke-width="0.9" opacity="0.5"/>
    <line x1="208" y1="88" x2="260" y2="88" stroke="#c9a96e" stroke-width="0.9" opacity="0.5"/>
    <polygon points="200,83.5 204.5,88 200,92.5 195.5,88" fill="#c9a96e" opacity="0.7"/>
    <text x="200" y="594" text-anchor="middle" font-family="Georgia, 'Times New Roman', serif" font-size="25" letter-spacing="1.5" fill="#f0dcae">THE CHARIOT</text><line x1="56.25" y1="588" x2="84.25" y2="588" stroke="#c9a96e" stroke-width="0.8" opacity="0.45"/><line x1="315.75" y1="588" x2="343.75" y2="588" stroke="#c9a96e" stroke-width="0.8" opacity="0.45"/>
  </g></svg>