<svg xmlns="http://www.w3.org/2000/svg" viewBox="0 0 400 640" width="400" height="640"><defs>
    <radialGradient id="bgGrad" cx="50%" cy="38%" r="75%">
      <stop offset="0%" stop-color="#12162a"/>
      <stop offset="100%" stop-color="#0b0e1a"/>
    </radialGradient>
    <linearGradient id="sheen" x1="0%" y1="0%" x2="100%" y2="100%">
      <stop offset="35%" stop-color="#c9a96e" stop-opacity="0"/>
      <stop offset="50%" stop-color="#c9a96e" stop-opacity="0.14"/>
      <stop offset="65%" stop-color="#c9a96e" stop-opacity="0"/>
    </linearGradient>
    <radialGradient id="halo" cx="50%" cy="50%" r="50%">
      <stop offset="0%" stop-color="#e4c894" stop-opacity="0.13"/>
      <stop offset="45%" stop-color="#e4c894" stop-opacity="0.06"/>
      <stop offset="100%" stop-color="#e4c894" stop-opacity="0"/>
    </radialGradient>
    <filter id="glow" x="-40%" y="-40%" width="180%" height="180%">
      <feGaussianBlur stdDeviation="3.5" result="b"/>
      <feMerge><feMergeNode in="b"/><feMergeNode in="SourceGraphic"/></feMerge>
    </filter>
    <symbol id="sym-wands" viewBox="-20 -20 40 40"><g>
    <line x1="0" y1="-18" x2="0" y2="18" stroke="#c9a96e" stroke-width="2" stroke-linecap="round" transform="rotate(18)"/>
    <line x1="-5" y1="-10" x2="5" y2="-6" stroke="#c9a96e" stroke-width="1.3" transform="rotate(18)"/>
    <line x1="-5" y1="2" x2="5" y2="6" stroke="#c9a96e" stroke-width="1.3" transform="rotate(18)"/>
  </g></symbol>
<symbol id="sym-cups" viewBox="-20 -20 40 40"><g>
    <path d="M -9 -12 L 9 -12 L 5 6 A 5 5 0 0 1 -5 6 Z" fill="none" stroke="#c9a96e" stroke-width="1.6"/>
    <line x1="0" y1="6" x2="0" y2="14" stroke="#c9a96e" stroke-width="1.6"/>
    <line x1="-6" y1="16" x2="6" y2="16" stroke="#c9a96e" stroke-width="1.6"/>
  </g></symbol>
<symbol id="sym-swords" viewBox="-20 -20 40 40"><g>
    <line x1="0" y1="-18" x2="0" y2="14" stroke="#c9a96e" stroke-width="2"/>
    <line x1="-7" y1="-6" x2="7" y2="-6" stroke="#c9a96e" stroke-width="1.6"/>
    <circle cx="0" cy="17" r="2.2" fill="#c9a96e"/>
  </g></symbol>
<symbol id="sym-pentacles" viewBox="-20 -20 40 40"><g>
    <circle cx="0" cy="0" r="13" fill="none" stroke="#c9a96e" stroke-width="1.5" opacity="1"/>
    <polygon points="0,-8.4 2,-2.75 7.99,-2.6 3.23,1.05 4.94,6.8 0,3.4 -4.94,6.8 -3.23,1.05 -7.99,-2.6 -2,-2.75" fill="none" stroke="#c9a96e" stroke-width="1.2" opacity="1"/>
  </g></symbol>
  </defs>
    <rect x="0" y="0" width="400" height="640" fill="url(#bgGrad)"/>
    <ellipse cx="200" cy="330" rx="185" ry="215" fill="url(#halo)"/>
    <rect x="0" y="0" width="400" height="640" fill="url(#sheen)"/>
    <rect x="14" y="14" width="372" height="612" fill="none" stroke="#c9a96e" stroke-width="1.6" opacity="0.9"/>
    <rect x="21" y="21" width="358" height="598" fill="none" stroke="#c9a96e" stroke-width="0.7" opacity="0.5"/>
    <rect x="27" y="27" width="346" height="586" fill="none" stroke="#c9a96e" stroke-width="0.4" opacity="0.25"/>
    <polygon points="44,38 50,44 44,50 38,44" fill="#e4c894" opacity="1"/><polygon points="356,38 362,44 356,50 350,44" fill="#e4c894" opacity="1"/><polygon points="44,590 50,596 44,602 38,596" fill="#e4c894" opacity="1"/><polygon points="356,590 362,596 356,602 350,596" fill="#e4c894" opacity="1"/>
    <g fill="none" stroke="#c9a96e" stroke-width="0.7" opacity="0.5">
      <path d="M30 58 Q30 30 58 30"/>
      <path d="M370 58 Q370 30 342 30"/>
      <path d="M30 582 Q30 610 58 610"/>
      <path d="M370 582 Q370 610 342 610"/>
    </g>
    <g stroke="#c9a96e" stroke-width="0.9" stroke-linecap="round" opacity="0.54"><line x1="42.9" y1="410.5" x2="42.9" y2="417.3"/><line x1="39.5" y1="413.9" x2="46.3" y2="413.9"/></g><g stroke="#c9a96e" stroke-width="0.9" stroke-linecap="round" opacity="0.44"><line x1="333.1" y1="355.6" x2="333.1" y2="363.2"/><line x1="329.3" y1="359.4" x2="336.8" y2="359.4"/></g><g stroke="#c9a96e" stroke-width="0.9" stroke-linecap="round" opacity="0.47"><line x1="42.2" y1="261.2" x2="42.2" y2="269.4"/><line x1="38.1" y1="265.3" x2="46.3" y2="265.3"/></g><g stroke="#c9a96e" stroke-width="0.9" stroke-linecap="round" opacity="0.43"><line x1="354.4" y1="445.3" x2="354.4" y2="454.0"/><line x1="350.0" y1="449.7" x2="358.8" y2="449.7"/></g><g stroke="#c9a96e" stroke-width="0.9" stroke-linecap="round" opacity="0.41"><line x1="49.7" y1="283.8" x2="49.7" y2="291.5"/><line x1="45.8" y1="287.6" x2="53.6" y2="287.6"/></g><g stroke="#c9a96e" stroke-width="0.9" stroke-linecap="round" opacity="0.43"><line x1="326.1" y1="187.7" x2="326.1" y2="196.1"/><line x1="321.9" y1="191.9" x2="330.4" y2="191.9"/></g>
  <g filter="url(#glow)"><circle cx="200" cy="340" r="88" fill="none" stroke="#c9a96e" stroke-width="1" opacity="0.7"/><circle cx="288" cy="340" r="1.6" fill="#c9a96e" opacity="1"/><circle cx="285.4428799334926" cy="361.0597784573051" r="1.6" fill="#c9a96e" opacity="1"/><circle cx="277.92013025748247" cy="380.89563913985165" r="1.6" fill="#c9a96e" opacity="1"/><circle cx="265.8689458390569" cy="398.35479392519" r="1.6" fill="#c9a96e" opacity="1"/><circle cx="249.9896977123417" cy="412.42258019864175" r="1.6" fill="#c9a96e" opacity="1"/><circle cx="231.20523005974314" cy="422.2814293563165" r="1.6" fill="#c9a96e" opacity="1"/><circle cx="210.60722786246845" cy="427.35838092062875" r="1.6" fill="#c9a96e" opacity="1"/><circle cx="189.39277213753158" cy="427.35838092062875" r="1.6" fill="#c9a96e" opacity="1"/><circle cx="168.79476994025686" cy="422.2814293563165" r="1.6" fill="#c9a96e" opacity="1"/><circle cx="150.0103022876583" cy="412.42258019864175" r="1.6" fill="#c9a96e" opacity="1"/><circle cx="134.1310541609431" cy="398.35479392519" r="1.6" fill="#c9a96e" opacity="1"/><circle cx="122.07986974251752" cy="380.8956391398516" r="1.6" fill="#c9a96e" opacity="1"/><circle cx="114.55712006650744" cy="361.05977845730513" r="1.6" fill="#c9a96e" opacity="1"/><circle cx="112" cy="340" r="1.6" fill="#c9a96e" opacity="1"/><circle cx="114.55712006650742" cy="318.9402215426949" r="1.6" fill="#c9a96e" opacity="1"/><circle cx="122.07986974251754" cy="299.10436086014835" r="1.6" fill="#c9a96e" opacity="1"/><circle cx="134.1310541609431" cy="281.64520607481" r="1.6" fill="#c9a96e" opacity="1"/><circle cx="150.01030228765828" cy="267.57741980135825" r="1.6" fill="#c9a96e" opacity="1"/><circle cx="168.79476994025686" cy="257.7185706436835" r="1.6" fill="#c9a96e" opacity="1"/><circle cx="189.3927721375316" cy="252.64161907937125" r="1.6" fill="#c9a96e" opacity="1"/><circle cx="210.60722786246845" cy="252.64161907937125" r="1.6" fill="#c9a96e" opacity="1"/><circle cx="231.20523005974314" cy="257.7185706436835" r="1.6" fill="#c9a96e" opacity="1"/><circle cx="249.98969771234175" cy="267.57741980135825" r="1.6" fill="#c9a96e" opacity="1"/><circle cx="265.8689458390569" cy="281.64520607481" r="1.6" fill="#c9a96e" opacity="1"/><circle cx="277.92013025748247" cy="299.1043608601483" r="1.6" fill="#c9a96e" opacity="1"/><circle cx="285.4428799334926" cy="318.940221542695" r="1.6" fill="#c9a96e" opacity="1"/><circle cx="200" cy="328" r="26" fill="none" stroke="#c9a96e" stroke-width="1.6" opacity="1"/><line x1="200" y1="354" x2="200" y2="386" stroke="#c9a96e" stroke-width="1.6" opacity="1" stroke-linecap="round"/><line x1="184" y1="370" x2="216" y2="370" stroke="#c9a96e" stroke-width="1.6" opacity="1" stroke-linecap="round"/>
    <text x="200" y="70" text-anchor="middle" font-family="Georgia, 'Times New Roman', serif" font-size="20" letter-spacing="4" fill="#f0dcae">III</text>
    <polygon points="153,60 157,64 153,68 149,64" fill="#c9a96e" opacity="0.8"/>
    <polygon points="247,60 251,64 247,68 243,64" fill="#c9a96e" opacity="0.8"/>
    <line x1="140" y1="88" x2="192" y2="88" stroke="#c9a96e" stroke-width="0.9" opacity="0.5"/>
    <line x1="208" y1="88" x2="260" y2="88" stroke="#c9a96e" stroke-width="0.9" opacity="0.5"/>
    <polygon points="200,83.5 204.5,88 200,92.5 195.5,88" fill="#c9a96e" opacity="0.7"/>
    <text x="200" y="594" text-anchor="middle" font-family="Georgia, 'Times New Roman', serif" font-size="25" letter-spacing="1.5" fill="#f0dcae">THE EMPRESS</text><line x1="56.25" y1="588" x2="84.25" y2="588" stroke="#c9a96e" stroke-width="0.8" opacity="0.45"/><line x1="315.75" y1="588" x2="343.75" y2="588" stroke="#c9a96e" stroke-width="0.8" opacity="0.45"/>
  </g></svg>