<svg xmlns="http://www.w3.org/2000/svg" viewBox="0 0 400 640" width="400" height="640"><defs>
    <radialGradient id="bgGrad" cx="50%" cy="38%" r="75%">
      <stop offset="0%" stop-color="#12162a"/>
      <stop offset="100%" stop-color="#0b0e1a"/>
    </radialGradient>
    <linearGradient id="sheen" x1="0%" y1="0%" x2="100%" y2="100%">
      <stop offset="35%" stop-color="#c9a96e" stop-opacity="0"/>
      <stop offset="50%" stop-color="#c9a96e" stop-opacity="0.14"/>
      <stop offset="65%" stop-color="#c9a96e" stop-opacity="0"/>
    </linearGradient>
    <radialGradient id="halo" cx="50%" cy="50%" r="50%">
      <stop offset="0%" stop-color="#e4c894" stop-opacity="0.13"/>
      <stop offset="45%" stop-color="#e4c894" stop-opacity="0.06"/>
      <stop offset="100%" stop-color="#e4c894" stop-opacity="0"/>
    </radialGradient>
    <filter id="glow" x="-40%" y="-40%" width="180%" height="180%">
      <feGaussianBlur stdDeviation="3.5" result="b"/>
      <feMerge><feMergeNode in="b"/><feMergeNode in="SourceGraphic"/></feMerge>
    </filter>
    <symbol id="sym-wands" viewBox="-20 -20 40 40"><g>
    <line x1="0" y1="-18" x2="0" y2="18" stroke="#c9a96e" stroke-width="2" stroke-linecap="round" transform="rotate(18)"/>
    <line x1="-5" y1="-10" x2="5" y2="-6" stroke="#c9a96e" stroke-width="1.3" transform="rotate(18)"/>
    <line x1="-5" y1="2" x2="5" y2="6" stroke="#c9a96e" stroke-width="1.3" transform="rotate(18)"/>
  </g></symbol>
<symbol id="sym-cups" viewBox="-20 -20 40 40"><g>
    <path d="M -9 -12 L 9 -12 L 5 6 A 5 5 0 0 1 -5 6 Z" fill="none" stroke="#c9a96e" stroke-width="1.6"/>
    <line x1="0" y1="6" x2="0" y2="14" stroke="#c9a96e" stroke-width="1.6"/>
    <line x1="-6" y1="16" x2="6" y2="16" stroke="#c9a96e" stroke-width="1.6"/>
  </g></symbol>
<symbol id="sym-swords" viewBox="-20 -20 40 40"><g>
    <line x1="0" y1="-18" x2="0" y2="14" stroke="#c9a96e" stroke-width="2"/>
    <line x1="-7" y1="-6" x2="7" y2="-6" stroke="#c9a96e" stroke-width="1.6"/>
    <circle cx="0" cy="17" r="2.2" fill="#c9a96e"/>
  </g></symbol>
<symbol id="sym-pentacles" viewBox="-20 -20 40 40"><g>
    <circle cx="0" cy="0" r="13" fill="none" stroke="#c9a96e" stroke-width="1.5" opacity="1"/>
    <polygon points="0,-8.4 2,-2.75 7.99,-2.6 3.23,1.05 4.94,6.8 0,3.4 -4.94,6.8 -3.23,1.05 -7.99,-2.6 -2,-2.75" fill="none" stroke="#c9a96e" stroke-width="1.2" opacity="1"/>
  </g></symbol>
  </defs>
    <rect x="0" y="0" width="400" height="640" fill="url(#bgGrad)"/>
    <ellipse cx="200" cy="330" rx="185" ry="215" fill="url(#halo)"/>
    <rect x="0" y="0" width="400" height="640" fill="url(#sheen)"/>
    <rect x="14" y="14" width="372" height="612" fill="none" stroke="#c9a96e" stroke-width="1.6" opacity="0.9"/>
    <rect x="21" y="21" width="358" height="598" fill="none" stroke="#c9a96e" stroke-width="0.7" opacity="0.5"/>
    <rect x="27" y="27" width="346" height="586" fill="none" stroke="#c9a96e" stroke-width="0.4" opacity="0.25"/>
    <polygon points="44,38 50,44 44,50 38,44" fill="#e4c894" opacity="1"/><polygon points="356,38 362,44 356,50 350,44" fill="#e4c894" opacity="1"/><polygon points="44,590 50,596 44,602 38,596" fill="#e4c894" opacity="1"/><polygon points="356,590 362,596 356,602 350,596" fill="#e4c894" opacity="1"/>
    <g fill="none" stroke="#c9a96e" stroke-width="0.7" opacity="0.5">
      <path d="M30 58 Q30 30 58 30"/>
      <path d="M370 58 Q370 30 342 30"/>
      <path d="M30 582 Q30 610 58 610"/>
      <path d="M370 582 Q370 610 342 610"/>
    </g>
    <g stroke="#c9a96e" stroke-width="0.9" stroke-linecap="round" opacity="0.42"><line x1="71.8" y1="263.4" x2="71.8" y2="271.9"/><line x1="67.6" y1="267.7" x2="76.1" y2="267.7"/></g><g stroke="#c9a96e" stroke-width="0.9" stroke-linecap="round" opacity="0.44"><line x1="352.1" y1="378.3" x2="352.1" y2="384.9"/><line x1="348.8" y1="381.6" x2="355.4" y2="381.6"/></g><g stroke="#c9a96e" stroke-width="0.9" stroke-linecap="round" opacity="0.42"><line x1="45.1" y1="233.8" x2="45.1" y2="241.1"/><line x1="41.4" y1="237.4" x2="48.7" y2="237.4"/></g><g stroke="#c9a96e" stroke-width="0.9" stroke-linecap="round" opacity="0.59"><line x1="354.8" y1="500.1" x2="354.8" y2="507.6"/><line x1="351.0" y1="503.9" x2="358.5" y2="503.9"/></g><g stroke="#c9a96e" stroke-width="0.9" stroke-linecap="round" opacity="0.51"><line x1="65.5" y1="251.0" x2="65.5" y2="259.0"/><line x1="61.5" y1="255.0" x2="69.5" y2="255.0"/></g><g stroke="#c9a96e" stroke-width="0.9" stroke-linecap="round" opacity="0.36"><line x1="358.0" y1="137.6" x2="358.0" y2="144.4"/><line x1="354.5" y1="141.0" x2="361.4" y2="141.0"/></g>
  <g filter="url(#glow)"><circle cx="200" cy="340" r="92" fill="none" stroke="#c9a96e" stroke-width="1" opacity="0.7"/><circle cx="292" cy="340" r="1.6" fill="#c9a96e"/><circle cx="289.9895792675101" cy="359.12787555523386" r="1.6" fill="#c9a96e"/><circle cx="284.0461821031193" cy="377.41977116297363" r="1.6" fill="#c9a96e"/><circle cx="274.42956348249515" cy="394.07624321090753" r="1.6" fill="#c9a96e"/><circle cx="261.56001578501497" cy="408.3693239439203" r="1.6" fill="#c9a96e"/><circle cx="246" cy="419.6743371481683" r="1.6" fill="#c9a96e"/><circle cx="228.42956348249515" cy="427.49719949915414" r="1.6" fill="#c9a96e"/><circle cx="209.6166186206241" cy="431.49601437388117" r="1.6" fill="#c9a96e"/><circle cx="190.3833813793759" cy="431.49601437388117" r="1.6" fill="#c9a96e"/><circle cx="171.57043651750485" cy="427.49719949915414" r="1.6" fill="#c9a96e"/><circle cx="154.00000000000003" cy="419.6743371481684" r="1.6" fill="#c9a96e"/><circle cx="138.43998421498503" cy="408.3693239439203" r="1.6" fill="#c9a96e"/><circle cx="125.57043651750485" cy="394.07624321090753" r="1.6" fill="#c9a96e"/><circle cx="115.95381789688074" cy="377.41977116297363" r="1.6" fill="#c9a96e"/><circle cx="110.01042073248988" cy="359.12787555523386" r="1.6" fill="#c9a96e"/><circle cx="108" cy="340" r="1.6" fill="#c9a96e"/><circle cx="110.01042073248988" cy="320.87212444476614" r="1.6" fill="#c9a96e"/><circle cx="115.9538178968807" cy="302.5802288370264" r="1.6" fill="#c9a96e"/><circle cx="125.57043651750483" cy="285.92375678909247" r="1.6" fill="#c9a96e"/><circle cx="138.43998421498503" cy="271.6306760560798" r="1.6" fill="#c9a96e"/><circle cx="153.99999999999994" cy="260.3256628518317" r="1.6" fill="#c9a96e"/><circle cx="171.57043651750482" cy="252.50280050084586" r="1.6" fill="#c9a96e"/><circle cx="190.3833813793759" cy="248.50398562611883" r="1.6" fill="#c9a96e"/><circle cx="209.61661862062408" cy="248.50398562611883" r="1.6" fill="#c9a96e"/><circle cx="228.42956348249515" cy="252.50280050084586" r="1.6" fill="#c9a96e"/><circle cx="246" cy="260.3256628518317" r="1.6" fill="#c9a96e"/><circle cx="261.5600157850149" cy="271.63067605607966" r="1.6" fill="#c9a96e"/><circle cx="274.42956348249515" cy="285.92375678909247" r="1.6" fill="#c9a96e"/><circle cx="284.0461821031193" cy="302.58022883702637" r="1.6" fill="#c9a96e"/><circle cx="289.9895792675101" cy="320.8721244447661" r="1.6" fill="#c9a96e"/><polygon points="200,294 211.31,328.69 246,340 211.31,351.31 200,386 188.69,351.31 154,340 188.69,328.69" fill="none" stroke="#c9a96e" stroke-width="1.6" opacity="1"/>
    <text x="200" y="70" text-anchor="middle" font-family="Georgia, 'Times New Roman', serif" font-size="20" letter-spacing="4" fill="#f0dcae">XXI</text>
    <polygon points="153,60 157,64 153,68 149,64" fill="#c9a96e" opacity="0.8"/>
    <polygon points="247,60 251,64 247,68 243,64" fill="#c9a96e" opacity="0.8"/>
    <line x1="140" y1="88" x2="192" y2="88" stroke="#c9a96e" stroke-width="0.9" opacity="0.5"/>
    <line x1="208" y1="88" x2="260" y2="88" stroke="#c9a96e" stroke-width="0.9" opacity="0.5"/>
    <polygon points="200,83.5 204.5,88 200,92.5 195.5,88" fill="#c9a96e" opacity="0.7"/>
    <text x="200" y="594" text-anchor="middle" font-family="Georgia, 'Times New Roman', serif" font-size="25" letter-spacing="1.5" fill="#f0dcae">THE WORLD</text><line x1="74.75" y1="588" x2="102.75" y2="588" stroke="#c9a96e" stroke-width="0.8" opacity="0.45"/><line x1="297.25" y1="588" x2="325.25" y2="588" stroke="#c9a96e" stroke-width="0.8" opacity="0.45"/>
  </g></svg>