<svg xmlns="http://www.w3.org/2000/svg" viewBox="0 0 400 640" width="400" height="640"><defs>
    <radialGradient id="bgGrad" cx="50%" cy="38%" r="75%">
      <stop offset="0%" stop-color="#12162a"/>
      <stop offset="100%" stop-color="#0b0e1a"/>
    </radialGradient>
    <linearGradient id="sheen" x1="0%" y1="0%" x2="100%" y2="100%">
      <stop offset="35%" stop-color="#c9a96e" stop-opacity="0"/>
      <stop offset="50%" stop-color="#c9a96e" stop-opacity="0.14"/>
      <stop offset="65%" stop-color="#c9a96e" stop-opacity="0"/>
    </linearGradient>
    <radialGradient id="halo" cx="50%" cy="50%" r="50%">
      <stop offset="0%" stop-color="#e4c894" stop-opacity="0.13"/>
      <stop offset="45%" stop-color="#e4c894" stop-opacity="0.06"/>
      <stop offset="100%" stop-color="#e4c894" stop-opacity="0"/>
    </radialGradient>
    <filter id="glow" x="-40%" y="-40%" width="180%" height="180%">
      <feGaussianBlur stdDeviation="3.5" result="b"/>
      <feMerge><feMergeNode in="b"/><feMergeNode in="SourceGraphic"/></feMerge>
    </filter>
    <symbol id="sym-wands" viewBox="-20 -20 40 40"><g>
    <line x1="0" y1="-18" x2="0" y2="18" stroke="#c9a96e" stroke-width="2" stroke-linecap="round" transform="rotate(18)"/>
    <line x1="-5" y1="-10" x2="5" y2="-6" stroke="#c9a96e" stroke-width="1.3" transform="rotate(18)"/>
    <line x1="-5" y1="2" x2="5" y2="6" stroke="#c9a96e" stroke-width="1.3" transform="rotate(18)"/>
  </g></symbol>
<symbol id="sym-cups" viewBox="-20 -20 40 40"><g>
    <path d="M -9 -12 L 9 -12 L 5 6 A 5 5 0 0 1 -5 6 Z" fill="none" stroke="#c9a96e" stroke-width="1.6"/>
    <line x1="0" y1="6" x2="0" y2="14" stroke="#c9a96e" stroke-width="1.6"/>
    <line x1="-6" y1="16" x2="6" y2="16" stroke="#c9a96e" stroke-width="1.6"/>
  </g></symbol>
<symbol id="sym-swords" viewBox="-20 -20 40 40"><g>
    <line x1="0" y1="-18" x2="0" y2="14" stroke="#c9a96e" stroke-width="2"/>
    <line x1="-7" y1="-6" x2="7" y2="-6" stroke="#c9a96e" stroke-width="1.6"/>
    <circle cx="0" cy="17" r="2.2" fill="#c9a96e"/>
  </g></symbol>
<symbol id="sym-pentacles" viewBox="-20 -20 40 40"><g>
    <circle cx="0" cy="0" r="13" fill="none" stroke="#c9a96e" stroke-width="1.5" opacity="1"/>
    <polygon points="0,-8.4 2,-2.75 7.99,-2.6 3.23,1.05 4.94,6.8 0,3.4 -4.94,6.8 -3.23,1.05 -7.99,-2.6 -2,-2.75" fill="none" stroke="#c9a96e" stroke-width="1.2" opacity="1"/>
  </g></symbol>
  </defs>
    <rect x="0" y="0" width="400" height="640" fill="url(#bgGrad)"/>
    <ellipse cx="200" cy="330" rx="185" ry="215" fill="url(#halo)"/>
    <rect x="0" y="0" width="400" height="640" fill="url(#sheen)"/>
    <rect x="14" y="14" width="372" height="612" fill="none" stroke="#c9a96e" stroke-width="1.6" opacity="0.9"/>
    <rect x="21" y="21" width="358" height="598" fill="none" stroke="#c9a96e" stroke-width="0.7" opacity="0.5"/>
    <rect x="27" y="27" width="346" height="586" fill="none" stroke="#c9a96e" stroke-width="0.4" opacity="0.25"/>
    <polygon points="44,38 50,44 44,50 38,44" fill="#e4c894" opacity="1"/><polygon points="356,38 362,44 356,50 350,44" fill="#e4c894" opacity="1"/><polygon points="44,590 50,596 44,602 38,596" fill="#e4c894" opacity="1"/><polygon points="356,590 362,596 356,602 350,596" fill="#e4c894" opacity="1"/>
    <g fill="none" stroke="#c9a96e" stroke-width="0.7" opacity="0.5">
      <path d="M30 58 Q30 30 58 30"/>
      <path d="M370 58 Q370 30 342 30"/>
      <path d="M30 582 Q30 610 58 610"/>
      <path d="M370 582 Q370 610 342 610"/>
    </g>
    <g stroke="#c9a96e" stroke-width="0.9" stroke-linecap="round" opacity="0.48"><line x1="52.2" y1="127.6" x2="52.2" y2="134.9"/><line x1="48.5" y1="131.3" x2="55.9" y2="131.3"/></g><g stroke="#c9a96e" stroke-width="0.9" stroke-linecap="round" opacity="0.56"><line x1="347.0" y1="357.9" x2="347.0" y2="366.4"/><line x1="342.8" y1="362.2" x2="351.2" y2="362.2"/></g><g stroke="#c9a96e" stroke-width="0.9" stroke-linecap="round" opacity="0.51"><line x1="67.5" y1="169.1" x2="67.5" y2="175.9"/><line x1="64.1" y1="172.5" x2="70.9" y2="172.5"/></g><g stroke="#c9a96e" stroke-width="0.9" stroke-linecap="round" opacity="0.38"><line x1="331.9" y1="154.3" x2="331.9" y2="160.6"/><line x1="328.7" y1="157.5" x2="335.0" y2="157.5"/></g><g stroke="#c9a96e" stroke-width="0.9" stroke-linecap="round" opacity="0.48"><line x1="74.0" y1="363.6" x2="74.0" y2="372.5"/><line x1="69.6" y1="368.1" x2="78.4" y2="368.1"/></g><g stroke="#c9a96e" stroke-width="0.9" stroke-linecap="round" opacity="0.46"><line x1="334.0" y1="161.4" x2="334.0" y2="170.1"/><line x1="329.7" y1="165.7" x2="338.3" y2="165.7"/></g>
  <g filter="url(#glow)"><line x1="200" y1="280" x2="200" y2="230" stroke="#c9a96e" stroke-width="1.2" opacity="1" stroke-linecap="round"/><line x1="210.81281634911196" y1="283.1749293433764" x2="237.84485722189183" y2="241.11225270181734" stroke="#c9a96e" stroke-width="1.2" opacity="1" stroke-linecap="round"/><line x1="218.19263990709038" y1="291.69169973996225" x2="263.6742396748163" y2="270.920949089868" stroke="#c9a96e" stroke-width="1.2" opacity="1" stroke-linecap="round"/><line x1="219.79642883761866" y1="302.8462967654657" x2="269.2875009316653" y2="309.96203867913" stroke="#c9a96e" stroke-width="1.2" opacity="1" stroke-linecap="round"/><line x1="215.11499148708518" y1="313.0972146789057" x2="252.90247020479808" y2="345.84025137616993" stroke="#c9a96e" stroke-width="1.2" opacity="1" stroke-linecap="round"/><line x1="205.6346511368286" y1="319.1898594722899" x2="219.72127897890007" y2="367.1645081530148" stroke="#c9a96e" stroke-width="1.2" opacity="1" stroke-linecap="round"/><line x1="194.36534886317142" y1="319.1898594722899" x2="180.27872102109993" y2="367.1645081530148" stroke="#c9a96e" stroke-width="1.2" opacity="1" stroke-linecap="round"/><line x1="184.88500851291485" y1="313.0972146789057" x2="147.09752979520192" y2="345.84025137617" stroke="#c9a96e" stroke-width="1.2" opacity="1" stroke-linecap="round"/><line x1="180.20357116238134" y1="302.8462967654657" x2="130.7124990683347" y2="309.96203867913" stroke="#c9a96e" stroke-width="1.2" opacity="1" stroke-linecap="round"/><line x1="181.80736009290962" y1="291.69169973996225" x2="136.32576032518372" y2="270.9209490898679" stroke="#c9a96e" stroke-width="1.2" opacity="1" stroke-linecap="round"/><line x1="189.18718365088804" y1="283.1749293433764" x2="162.15514277810811" y2="241.11225270181734" stroke="#c9a96e" stroke-width="1.2" opacity="1" stroke-linecap="round"/><rect x="184" y="370" width="32" height="60" rx="16" fill="none" stroke="#c9a96e" stroke-width="1.6"/><circle cx="200" cy="360" r="12" fill="none" stroke="#c9a96e" stroke-width="1.3" opacity="1"/>
    <text x="200" y="70" text-anchor="middle" font-family="Georgia, 'Times New Roman', serif" font-size="20" letter-spacing="4" fill="#f0dcae">XX</text>
    <polygon points="160,60 164,64 160,68 156,64" fill="#c9a96e" opacity="0.8"/>
    <polygon points="240,60 244,64 240,68 236,64" fill="#c9a96e" opacity="0.8"/>
    <line x1="140" y1="88" x2="192" y2="88" stroke="#c9a96e" stroke-width="0.9" opacity="0.5"/>
    <line x1="208" y1="88" x2="260" y2="88" stroke="#c9a96e" stroke-width="0.9" opacity="0.5"/>
    <polygon points="200,83.5 204.5,88 200,92.5 195.5,88" fill="#c9a96e" opacity="0.7"/>
    <text x="200" y="594" text-anchor="middle" font-family="Georgia, 'Times New Roman', serif" font-size="25" letter-spacing="1.5" fill="#f0dcae">JUDGEMENT</text><line x1="74.75" y1="588" x2="102.75" y2="588" stroke="#c9a96e" stroke-width="0.8" opacity="0.45"/><line x1="297.25" y1="588" x2="325.25" y2="588" stroke="#c9a96e" stroke-width="0.8" opacity="0.45"/>
  </g></svg>