<svg xmlns="http://www.w3.org/2000/svg" viewBox="0 0 400 640" width="400" height="640"><defs>
    <radialGradient id="bgGrad" cx="50%" cy="38%" r="75%">
      <stop offset="0%" stop-color="#12162a"/>
      <stop offset="100%" stop-color="#0b0e1a"/>
    </radialGradient>
    <linearGradient id="sheen" x1="0%" y1="0%" x2="100%" y2="100%">
      <stop offset="35%" stop-color="#c9a96e" stop-opacity="0"/>
      <stop offset="50%" stop-color="#c9a96e" stop-opacity="0.14"/>
      <stop offset="65%" stop-color="#c9a96e" stop-opacity="0"/>
    </linearGradient>
    <symbol id="sym-wands" viewBox="-20 -20 40 40"><g>
    <line x1="0" y1="-18" x2="0" y2="18" stroke="#c9a96e" stroke-width="2" stroke-linecap="round" transform="rotate(18)"/>
    <line x1="-5" y1="-10" x2="5" y2="-6" stroke="#c9a96e" stroke-width="1.3" transform="rotate(18)"/>
    <line x1="-5" y1="2" x2="5" y2="6" stroke="#c9a96e" stroke-width="1.3" transform="rotate(18)"/>
  </g></symbol>
<symbol id="sym-cups" viewBox="-20 -20 40 40"><g>
    <path d="M -9 -12 L 9 -12 L 5 6 A 5 5 0 0 1 -5 6 Z" fill="none" stroke="#c9a96e" stroke-width="1.6"/>
    <line x1="0" y1="6" x2="0" y2="14" stroke="#c9a96e" stroke-width="1.6"/>
    <line x1="-6" y1="16" x2="6" y2="16" stroke="#c9a96e" stroke-width="1.6"/>
  </g></symbol>
<symbol id="sym-swords" viewBox="-20 -20 40 40"><g>
    <line x1="0" y1="-18" x2="0" y2="14" stroke="#c9a96e" stroke-width="2"/>
    <line x1="-7" y1="-6" x2="7" y2="-6" stroke="#c9a96e" stroke-width="1.6"/>
    <circle cx="0" cy="17" r="2.2" fill="#c9a96e"/>
  </g></symbol>
<symbol id="sym-pentacles" viewBox="-20 -20 40 40"><g>
    <circle cx="0" cy="0" r="13" fill="none" stroke="#c9a96e" stroke-width="1.5" opacity="1"/>
    <polygon points="0,-8.4 2,-2.75 7.99,-2.6 3.23,1.05 4.94,6.8 0,3.4 -4.94,6.8 -3.23,1.05 -7.99,-2.6 -2,-2.75" fill="none" stroke="#c9a96e" stroke-width="1.2" opacity="1"/>
  </g></symbol>
  </defs>
    <rect x="0" y="0" width="400" height="640" fill="url(#bgGrad)"/>
    <rect x="0" y="0" width="400" height="640" fill="url(#sheen)"/>
    <rect x="14" y="14" width="372" height="612" fill="none" stroke="#c9a96e" stroke-width="1.6" opacity="0.9"/>
    <rect x="21" y="21" width="358" height="598" fill="none" stroke="#c9a96e" stroke-width="0.8" opacity="0.55"/>
    <circle cx="14" cy="14" r="3" fill="#c9a96e"/><circle cx="386" cy="14" r="3" fill="#c9a96e"/><circle cx="14" cy="626" r="3" fill="#c9a96e"/><circle cx="386" cy="626" r="3" fill="#c9a96e"/>
  <line x1="110" y1="380" x2="290" y2="380" stroke="#c9a96e" stroke-width="1.4" opacity="0.7" stroke-linecap="round"/><polygon points="200,250 164,370 236,370" fill="none" stroke="#c9a96e" stroke-width="1.6" opacity="1"/><line x1="200" y1="246" x2="200" y2="220" stroke="#c9a96e" stroke-width="1.1" opacity="0.8" stroke-linecap="round"/><line x1="202.57115043874614" y1="246.93582222752408" x2="219.28362829059617" y2="227.01866670643065" stroke="#c9a96e" stroke-width="1.1" opacity="0.8" stroke-linecap="round"/><line x1="203.93923101204882" y1="249.30540728933227" x2="229.54423259036625" y2="244.7905546699921" stroke="#c9a96e" stroke-width="1.1" opacity="0.8" stroke-linecap="round"/><line x1="203.46410161513776" y1="252" x2="225.98076211353316" y2="265" stroke="#c9a96e" stroke-width="1.1" opacity="0.8" stroke-linecap="round"/><line x1="201.36808057330268" y1="253.75877048314362" x2="210.26060429977008" y2="278.1907786235773" stroke="#c9a96e" stroke-width="1.1" opacity="0.8" stroke-linecap="round"/><line x1="198.63191942669732" y1="253.75877048314362" x2="189.73939570022995" y2="278.1907786235773" stroke="#c9a96e" stroke-width="1.1" opacity="0.8" stroke-linecap="round"/><line x1="196.53589838486224" y1="252" x2="174.01923788646684" y2="265" stroke="#c9a96e" stroke-width="1.1" opacity="0.8" stroke-linecap="round"/><line x1="196.06076898795118" y1="249.30540728933227" x2="170.45576740963375" y2="244.79055466999208" stroke="#c9a96e" stroke-width="1.1" opacity="0.8" stroke-linecap="round"/><line x1="197.42884956125386" y1="246.93582222752408" x2="180.7163717094038" y2="227.01866670643068" stroke="#c9a96e" stroke-width="1.1" opacity="0.8" stroke-linecap="round"/>
    <text x="200" y="70" text-anchor="middle" font-family="Georgia, 'Times New Roman', serif" font-size="20" letter-spacing="4" fill="#c9a96e" opacity="0.9">XIII</text>
    <line x1="140" y1="86" x2="260" y2="86" stroke="#c9a96e" stroke-width="1" opacity="0.5"/>
    <text x="200" y="594" text-anchor="middle" font-family="Georgia, 'Times New Roman', serif" font-size="25" letter-spacing="1.5" fill="#e4c894">DEATH</text>
  </svg>