<svg xmlns="http://www.w3.org/2000/svg" viewBox="0 0 400 640" width="400" height="640"><defs>
    <radialGradient id="bgGrad" cx="50%" cy="38%" r="75%">
      <stop offset="0%" stop-color="#12162a"/>
      <stop offset="100%" stop-color="#0b0e1a"/>
    </radialGradient>
    <linearGradient id="sheen" x1="0%" y1="0%" x2="100%" y2="100%">
      <stop offset="35%" stop-color="#c9a96e" stop-opacity="0"/>
      <stop offset="50%" stop-color="#c9a96e" stop-opacity="0.14"/>
      <stop offset="65%" stop-color="#c9a96e" stop-opacity="0"/>
    </linearGradient>
    <radialGradient id="halo" cx="50%" cy="50%" r="50%">
      <stop offset="0%" stop-color="#8fb3c9" stop-opacity="0.13"/>
      <stop offset="45%" stop-color="#8fb3c9" stop-opacity="0.06"/>
      <stop offset="100%" stop-color="#8fb3c9" stop-opacity="0"/>
    </radialGradient>
    <filter id="glow" x="-40%" y="-40%" width="180%" height="180%">
      <feGaussianBlur stdDeviation="3.5" result="b"/>
      <feMerge><feMergeNode in="b"/><feMergeNode in="SourceGraphic"/></feMerge>
    </filter>
    <symbol id="sym-wands" viewBox="-20 -20 40 40"><g>
    <line x1="0" y1="-18" x2="0" y2="18" stroke="#c9a96e" stroke-width="2" stroke-linecap="round" transform="rotate(18)"/>
    <line x1="-5" y1="-10" x2="5" y2="-6" stroke="#c9a96e" stroke-width="1.3" transform="rotate(18)"/>
    <line x1="-5" y1="2" x2="5" y2="6" stroke="#c9a96e" stroke-width="1.3" transform="rotate(18)"/>
  </g></symbol>
<symbol id="sym-cups" viewBox="-20 -20 40 40"><g>
    <path d="M -9 -12 L 9 -12 L 5 6 A 5 5 0 0 1 -5 6 Z" fill="none" stroke="#c9a96e" stroke-width="1.6"/>
    <line x1="0" y1="6" x2="0" y2="14" stroke="#c9a96e" stroke-width="1.6"/>
    <line x1="-6" y1="16" x2="6" y2="16" stroke="#c9a96e" stroke-width="1.6"/>
  </g></symbol>
<symbol id="sym-swords" viewBox="-20 -20 40 40"><g>
    <line x1="0" y1="-18" x2="0" y2="14" stroke="#c9a96e" stroke-width="2"/>
    <line x1="-7" y1="-6" x2="7" y2="-6" stroke="#c9a96e" stroke-width="1.6"/>
    <circle cx="0" cy="17" r="2.2" fill="#c9a96e"/>
  </g></symbol>
<symbol id="sym-pentacles" viewBox="-20 -20 40 40"><g>
    <circle cx="0" cy="0" r="13" fill="none" stroke="#c9a96e" stroke-width="1.5" opacity="1"/>
    <polygon points="0,-8.4 2,-2.75 7.99,-2.6 3.23,1.05 4.94,6.8 0,3.4 -4.94,6.8 -3.23,1.05 -7.99,-2.6 -2,-2.75" fill="none" stroke="#c9a96e" stroke-width="1.2" opacity="1"/>
  </g></symbol>
  </defs>
    <rect x="0" y="0" width="400" height="640" fill="url(#bgGrad)"/>
    <ellipse cx="200" cy="330" rx="185" ry="215" fill="url(#halo)"/>
    <rect x="0" y="0" width="400" height="640" fill="url(#sheen)"/>
    <rect x="14" y="14" width="372" height="612" fill="none" stroke="#c9a96e" stroke-width="1.6" opacity="0.9"/>
    <rect x="21" y="21" width="358" height="598" fill="none" stroke="#c9a96e" stroke-width="0.7" opacity="0.5"/>
    <rect x="27" y="27" width="346" height="586" fill="none" stroke="#c9a96e" stroke-width="0.4" opacity="0.25"/>
    <polygon points="44,38 50,44 44,50 38,44" fill="#e4c894" opacity="1"/><polygon points="356,38 362,44 356,50 350,44" fill="#e4c894" opacity="1"/><polygon points="44,590 50,596 44,602 38,596" fill="#e4c894" opacity="1"/><polygon points="356,590 362,596 356,602 350,596" fill="#e4c894" opacity="1"/>
    <g fill="none" stroke="#c9a96e" stroke-width="0.7" opacity="0.5">
      <path d="M30 58 Q30 30 58 30"/>
      <path d="M370 58 Q370 30 342 30"/>
      <path d="M30 582 Q30 610 58 610"/>
      <path d="M370 582 Q370 610 342 610"/>
    </g>
    <g stroke="#c9a96e" stroke-width="0.9" stroke-linecap="round" opacity="0.58"><line x1="42.0" y1="265.7" x2="42.0" y2="271.8"/><line x1="39.0" y1="268.8" x2="45.1" y2="268.8"/></g><g stroke="#c9a96e" stroke-width="0.9" stroke-linecap="round" opacity="0.59"><line x1="340.2" y1="283.7" x2="340.2" y2="290.4"/><line x1="336.9" y1="287.1" x2="343.6" y2="287.1"/></g><g stroke="#c9a96e" stroke-width="0.9" stroke-linecap="round" opacity="0.54"><line x1="63.8" y1="441.9" x2="63.8" y2="450.4"/><line x1="59.6" y1="446.1" x2="68.1" y2="446.1"/></g><g stroke="#c9a96e" stroke-width="0.9" stroke-linecap="round" opacity="0.51"><line x1="334.6" y1="311.8" x2="334.6" y2="319.6"/><line x1="330.6" y1="315.7" x2="338.5" y2="315.7"/></g><g stroke="#c9a96e" stroke-width="0.9" stroke-linecap="round" opacity="0.45"><line x1="49.7" y1="295.2" x2="49.7" y2="302.4"/><line x1="46.1" y1="298.8" x2="53.3" y2="298.8"/></g><g stroke="#c9a96e" stroke-width="0.9" stroke-linecap="round" opacity="0.40"><line x1="345.8" y1="132.6" x2="345.8" y2="139.3"/><line x1="342.5" y1="135.9" x2="349.1" y2="135.9"/></g>
  <g filter="url(#glow)"><use href="#sym-cups" x="118.4" y="174" width="40" height="40"/><use href="#sym-cups" x="241.60000000000002" y="174" width="40" height="40"/><use href="#sym-cups" x="180" y="300" width="40" height="40"/><use href="#sym-cups" x="118.4" y="426" width="40" height="40"/><use href="#sym-cups" x="241.60000000000002" y="426" width="40" height="40"/>
    <text x="200" y="70" text-anchor="middle" font-family="Georgia, 'Times New Roman', serif" font-size="20" letter-spacing="4" fill="#f0dcae">05</text>
    <polygon points="160,60 164,64 160,68 156,64" fill="#c9a96e" opacity="0.8"/>
    <polygon points="240,60 244,64 240,68 236,64" fill="#c9a96e" opacity="0.8"/>
    <line x1="140" y1="88" x2="192" y2="88" stroke="#c9a96e" stroke-width="0.9" opacity="0.5"/>
    <line x1="208" y1="88" x2="260" y2="88" stroke="#c9a96e" stroke-width="0.9" opacity="0.5"/>
    <polygon points="200,83.5 204.5,88 200,92.5 195.5,88" fill="#c9a96e" opacity="0.7"/>
    <text x="200" y="594" text-anchor="middle" font-family="Georgia, 'Times New Roman', serif" font-size="25" letter-spacing="1.5" fill="#f0dcae">FIVE OF CUPS</text><line x1="47" y1="588" x2="75" y2="588" stroke="#c9a96e" stroke-width="0.8" opacity="0.45"/><line x1="325" y1="588" x2="353" y2="588" stroke="#c9a96e" stroke-width="0.8" opacity="0.45"/>
  </g></svg>