<svg xmlns="http://www.w3.org/2000/svg" viewBox="0 0 400 640" width="400" height="640"><defs>
    <radialGradient id="bgGrad" cx="50%" cy="38%" r="75%">
      <stop offset="0%" stop-color="#12162a"/>
      <stop offset="100%" stop-color="#0b0e1a"/>
    </radialGradient>
    <linearGradient id="sheen" x1="0%" y1="0%" x2="100%" y2="100%">
      <stop offset="35%" stop-color="#c9a96e" stop-opacity="0"/>
      <stop offset="50%" stop-color="#c9a96e" stop-opacity="0.14"/>
      <stop offset="65%" stop-color="#c9a96e" stop-opacity="0"/>
    </linearGradient>
    <radialGradient id="halo" cx="50%" cy="50%" r="50%">
      <stop offset="0%" stop-color="#a9c49a" stop-opacity="0.13"/>
      <stop offset="45%" stop-color="#a9c49a" stop-opacity="0.06"/>
      <stop offset="100%" stop-color="#a9c49a" stop-opacity="0"/>
    </radialGradient>
    <filter id="glow" x="-40%" y="-40%" width="180%" height="180%">
      <feGaussianBlur stdDeviation="3.5" result="b"/>
      <feMerge><feMergeNode in="b"/><feMergeNode in="SourceGraphic"/></feMerge>
    </filter>
    <symbol id="sym-wands" viewBox="-20 -20 40 40"><g>
    <line x1="0" y1="-18" x2="0" y2="18" stroke="#c9a96e" stroke-width="2" stroke-linecap="round" transform="rotate(18)"/>
    <line x1="-5" y1="-10" x2="5" y2="-6" stroke="#c9a96e" stroke-width="1.3" transform="rotate(18)"/>
    <line x1="-5" y1="2" x2="5" y2="6" stroke="#c9a96e" stroke-width="1.3" transform="rotate(18)"/>
  </g></symbol>
<symbol id="sym-cups" viewBox="-20 -20 40 40"><g>
    <path d="M -9 -12 L 9 -12 L 5 6 A 5 5 0 0 1 -5 6 Z" fill="none" stroke="#c9a96e" stroke-width="1.6"/>
    <line x1="0" y1="6" x2="0" y2="14" stroke="#c9a96e" stroke-width="1.6"/>
    <line x1="-6" y1="16" x2="6" y2="16" stroke="#c9a96e" stroke-width="1.6"/>
  </g></symbol>
<symbol id="sym-swords" viewBox="-20 -20 40 40"><g>
    <line x1="0" y1="-18" x2="0" y2="14" stroke="#c9a96e" stroke-width="2"/>
    <line x1="-7" y1="-6" x2="7" y2="-6" stroke="#c9a96e" stroke-width="1.6"/>
    <circle cx="0" cy="17" r="2.2" fill="#c9a96e"/>
  </g></symbol>
<symbol id="sym-pentacles" viewBox="-20 -20 40 40"><g>
    <circle cx="0" cy="0" r="13" fill="none" stroke="#c9a96e" stroke-width="1.5" opacity="1"/>
    <polygon points="0,-8.4 2,-2.75 7.99,-2.6 3.23,1.05 4.94,6.8 0,3.4 -4.94,6.8 -3.23,1.05 -7.99,-2.6 -2,-2.75" fill="none" stroke="#c9a96e" stroke-width="1.2" opacity="1"/>
  </g></symbol>
  </defs>
    <rect x="0" y="0" width="400" height="640" fill="url(#bgGrad)"/>
    <ellipse cx="200" cy="330" rx="185" ry="215" fill="url(#halo)"/>
    <rect x="0" y="0" width="400" height="640" fill="url(#sheen)"/>
    <rect x="14" y="14" width="372" height="612" fill="none" stroke="#c9a96e" stroke-width="1.6" opacity="0.9"/>
    <rect x="21" y="21" width="358" height="598" fill="none" stroke="#c9a96e" stroke-width="0.7" opacity="0.5"/>
    <rect x="27" y="27" width="346" height="586" fill="none" stroke="#c9a96e" stroke-width="0.4" opacity="0.25"/>
    <polygon points="44,38 50,44 44,50 38,44" fill="#e4c894" opacity="1"/><polygon points="356,38 362,44 356,50 350,44" fill="#e4c894" opacity="1"/><polygon points="44,590 50,596 44,602 38,596" fill="#e4c894" opacity="1"/><polygon points="356,590 362,596 356,602 350,596" fill="#e4c894" opacity="1"/>
    <g fill="none" stroke="#c9a96e" stroke-width="0.7" opacity="0.5">
      <path d="M30 58 Q30 30 58 30"/>
      <path d="M370 58 Q370 30 342 30"/>
      <path d="M30 582 Q30 610 58 610"/>
      <path d="M370 582 Q370 610 342 610"/>
    </g>
    <g stroke="#c9a96e" stroke-width="0.9" stroke-linecap="round" opacity="0.48"><line x1="58.4" y1="219.3" x2="58.4" y2="225.3"/><line x1="55.4" y1="222.3" x2="61.4" y2="222.3"/></g><g stroke="#c9a96e" stroke-width="0.9" stroke-linecap="round" opacity="0.58"><line x1="357.1" y1="233.9" x2="357.1" y2="240.9"/><line x1="353.5" y1="237.4" x2="360.6" y2="237.4"/></g><g stroke="#c9a96e" stroke-width="0.9" stroke-linecap="round" opacity="0.42"><line x1="63.4" y1="361.0" x2="63.4" y2="369.8"/><line x1="59.0" y1="365.4" x2="67.8" y2="365.4"/></g><g stroke="#c9a96e" stroke-width="0.9" stroke-linecap="round" opacity="0.43"><line x1="333.4" y1="493.3" x2="333.4" y2="501.1"/><line x1="329.5" y1="497.2" x2="337.3" y2="497.2"/></g><g stroke="#c9a96e" stroke-width="0.9" stroke-linecap="round" opacity="0.53"><line x1="53.6" y1="186.8" x2="53.6" y2="195.3"/><line x1="49.3" y1="191.0" x2="57.8" y2="191.0"/></g><g stroke="#c9a96e" stroke-width="0.9" stroke-linecap="round" opacity="0.51"><line x1="344.9" y1="261.4" x2="344.9" y2="269.4"/><line x1="341.0" y1="265.4" x2="348.9" y2="265.4"/></g>
  <g filter="url(#glow)"><use href="#sym-pentacles" x="118.4" y="174" width="40" height="40"/><use href="#sym-pentacles" x="241.60000000000002" y="174" width="40" height="40"/><use href="#sym-pentacles" x="118.4" y="300" width="40" height="40"/><use href="#sym-pentacles" x="241.60000000000002" y="300" width="40" height="40"/><use href="#sym-pentacles" x="118.4" y="426" width="40" height="40"/><use href="#sym-pentacles" x="241.60000000000002" y="426" width="40" height="40"/>
    <text x="200" y="70" text-anchor="middle" font-family="Georgia, 'Times New Roman', serif" font-size="20" letter-spacing="4" fill="#f0dcae">06</text>
    <polygon points="160,60 164,64 160,68 156,64" fill="#c9a96e" opacity="0.8"/>
    <polygon points="240,60 244,64 240,68 236,64" fill="#c9a96e" opacity="0.8"/>
    <line x1="140" y1="88" x2="192" y2="88" stroke="#c9a96e" stroke-width="0.9" opacity="0.5"/>
    <line x1="208" y1="88" x2="260" y2="88" stroke="#c9a96e" stroke-width="0.9" opacity="0.5"/>
    <polygon points="200,83.5 204.5,88 200,92.5 195.5,88" fill="#c9a96e" opacity="0.7"/>
    <text x="200" y="594" text-anchor="middle" font-family="Georgia, 'Times New Roman', serif" font-size="25" letter-spacing="1.5" fill="#f0dcae">SIX OF PENTACLES</text>
  </g></svg>